<mxfile host="www.draw.io" modified="2019-11-15T03:16:54.915Z" agent="Mozilla/5.0 (Windows NT 10.0; Win64; x64) AppleWebKit/537.36 (KHTML, like Gecko) Chrome/77.0.3865.120 Safari/537.36" etag="HJ6t9mFWpfQQMlVSpF9y" version="12.2.6" type="github" pages="1">
  <diagram id="brxKucpQ4XSAwI68gNvu" name="Page-1">
    <mxGraphModel dx="1385" dy="635" grid="1" gridSize="10" guides="1" tooltips="1" connect="1" arrows="1" fold="1" page="1" pageScale="1" pageWidth="2339" pageHeight="3300" math="0" shadow="0">
      <root>
        <mxCell id="0"/>
        <mxCell id="1" parent="0"/>
        <mxCell id="1P68BwMIQxXi_deiFwZ2-267" value="终止阶段" style="shape=umlFrame;whiteSpace=wrap;html=1;fillColor=#E0E0E0;width=80;height=30;" parent="1" vertex="1">
          <mxGeometry x="360" y="2280" width="800" height="280" as="geometry"/>
        </mxCell>
        <mxCell id="1P68BwMIQxXi_deiFwZ2-116" value="补充发货阶段" style="shape=umlFrame;whiteSpace=wrap;html=1;fillColor=#E0E0E0;width=120;height=30;" parent="1" vertex="1">
          <mxGeometry x="360" y="1840" width="800" height="400" as="geometry"/>
        </mxCell>
        <mxCell id="1P68BwMIQxXi_deiFwZ2-251" value="Success" style="edgeStyle=orthogonalEdgeStyle;rounded=0;orthogonalLoop=1;jettySize=auto;html=1;exitX=1;exitY=0.5;exitDx=0;exitDy=0;exitPerimeter=0;strokeColor=#000000;entryX=0;entryY=0.5;entryDx=0;entryDy=0;" parent="1" source="1P68BwMIQxXi_deiFwZ2-248" target="1P68BwMIQxXi_deiFwZ2-256" edge="1">
          <mxGeometry x="0.0083" relative="1" as="geometry">
            <mxPoint x="680" y="1900" as="targetPoint"/>
            <mxPoint as="offset"/>
          </mxGeometry>
        </mxCell>
        <mxCell id="JIaDca9eBKveF-68zJ5j-20" value="第一阶段：初始化" style="shape=umlFrame;whiteSpace=wrap;html=1;fillColor=#E0E0E0;width=120;height=30;" parent="1" vertex="1">
          <mxGeometry x="360" y="160" width="800" height="440" as="geometry"/>
        </mxCell>
        <mxCell id="1P68BwMIQxXi_deiFwZ2-220" value="主动重连" style="dashed=1;edgeStyle=orthogonalEdgeStyle;rounded=0;orthogonalLoop=1;jettySize=auto;html=1;exitX=0.855;exitY=0.855;exitDx=0;exitDy=0;exitPerimeter=0;entryX=0.007;entryY=0.494;entryDx=0;entryDy=0;strokeColor=#007FFF;entryPerimeter=0;" parent="1" source="YImrFx-hV4mO0tuUi706-7" target="YImrFx-hV4mO0tuUi706-13" edge="1">
          <mxGeometry x="-0.3377" relative="1" as="geometry">
            <mxPoint x="274.8333333333335" y="284.16666666666674" as="sourcePoint"/>
            <mxPoint x="679" y="380" as="targetPoint"/>
            <Array as="points">
              <mxPoint x="599" y="234"/>
              <mxPoint x="599" y="380"/>
            </Array>
            <mxPoint as="offset"/>
          </mxGeometry>
        </mxCell>
        <mxCell id="1P68BwMIQxXi_deiFwZ2-3" value="第二阶段：获取商品详情" style="shape=umlFrame;whiteSpace=wrap;html=1;fillColor=#E0E0E0;width=160;height=30;" parent="1" vertex="1">
          <mxGeometry x="360" y="640" width="800" height="520" as="geometry"/>
        </mxCell>
        <mxCell id="1P68BwMIQxXi_deiFwZ2-122" value="-1" style="edgeStyle=orthogonalEdgeStyle;rounded=0;orthogonalLoop=1;jettySize=auto;html=1;exitX=0;exitY=0.5;exitDx=0;exitDy=0;entryX=0.5;entryY=1;entryDx=0;entryDy=0;entryPerimeter=0;strokeColor=#000000;" parent="1" source="JIaDca9eBKveF-68zJ5j-35" target="1P68BwMIQxXi_deiFwZ2-121" edge="1">
          <mxGeometry relative="1" as="geometry">
            <mxPoint as="offset"/>
          </mxGeometry>
        </mxCell>
        <mxCell id="1P68BwMIQxXi_deiFwZ2-48" value="第三阶段：购买流程" style="shape=umlFrame;whiteSpace=wrap;html=1;fillColor=#E0E0E0;width=120;height=30;" parent="1" vertex="1">
          <mxGeometry x="360" y="1200" width="800" height="600" as="geometry"/>
        </mxCell>
        <mxCell id="YImrFx-hV4mO0tuUi706-10" value="N" style="edgeStyle=orthogonalEdgeStyle;rounded=0;orthogonalLoop=1;jettySize=auto;html=1;exitX=0.5;exitY=1;exitDx=0;exitDy=0;exitPerimeter=0;entryX=0.5;entryY=0;entryDx=0;entryDy=0;entryPerimeter=0;strokeColor=#FF0000;" parent="1" source="YImrFx-hV4mO0tuUi706-5" target="YImrFx-hV4mO0tuUi706-9" edge="1">
          <mxGeometry x="-0.6207" relative="1" as="geometry">
            <Array as="points">
              <mxPoint x="800" y="260"/>
              <mxPoint x="260" y="260"/>
            </Array>
            <mxPoint as="offset"/>
          </mxGeometry>
        </mxCell>
        <mxCell id="JIaDca9eBKveF-68zJ5j-18" value="Y" style="edgeStyle=orthogonalEdgeStyle;rounded=0;orthogonalLoop=1;jettySize=auto;html=1;exitX=0.5;exitY=1;exitDx=0;exitDy=0;exitPerimeter=0;entryX=0.5;entryY=0;entryDx=0;entryDy=0;strokeColor=#000000;" parent="1" source="JIaDca9eBKveF-68zJ5j-14" target="YImrFx-hV4mO0tuUi706-13" edge="1">
          <mxGeometry x="-0.913" relative="1" as="geometry">
            <Array as="points">
              <mxPoint x="520" y="580"/>
              <mxPoint x="1120" y="580"/>
              <mxPoint x="1120" y="340"/>
              <mxPoint x="800" y="340"/>
            </Array>
            <mxPoint as="offset"/>
          </mxGeometry>
        </mxCell>
        <mxCell id="YImrFx-hV4mO0tuUi706-12" value="Y" style="edgeStyle=orthogonalEdgeStyle;rounded=0;orthogonalLoop=1;jettySize=auto;html=1;exitX=0.5;exitY=1;exitDx=0;exitDy=0;exitPerimeter=0;" parent="1" source="YImrFx-hV4mO0tuUi706-5" target="YImrFx-hV4mO0tuUi706-11" edge="1">
          <mxGeometry x="0.4974" y="10" relative="1" as="geometry">
            <mxPoint as="offset"/>
          </mxGeometry>
        </mxCell>
        <mxCell id="YImrFx-hV4mO0tuUi706-5" value="GMS可用？" style="strokeWidth=2;html=1;shape=mxgraph.flowchart.decision;whiteSpace=wrap;fillColor=none;" parent="1" vertex="1">
          <mxGeometry x="680" y="200" width="240" height="40" as="geometry"/>
        </mxCell>
        <mxCell id="YImrFx-hV4mO0tuUi706-8" value="Activity =&amp;gt; WeakReference" style="edgeStyle=orthogonalEdgeStyle;rounded=0;orthogonalLoop=1;jettySize=auto;html=1;exitX=1;exitY=0.5;exitDx=0;exitDy=0;exitPerimeter=0;" parent="1" source="YImrFx-hV4mO0tuUi706-7" edge="1">
          <mxGeometry relative="1" as="geometry">
            <mxPoint x="680" y="220" as="targetPoint"/>
            <Array as="points">
              <mxPoint x="300" y="220"/>
              <mxPoint x="300" y="220"/>
            </Array>
          </mxGeometry>
        </mxCell>
        <mxCell id="YImrFx-hV4mO0tuUi706-7" value="Start" style="strokeWidth=2;html=1;shape=mxgraph.flowchart.start_2;whiteSpace=wrap;fillColor=#E0E0E0;" parent="1" vertex="1">
          <mxGeometry x="240" y="200" width="40" height="40" as="geometry"/>
        </mxCell>
        <mxCell id="1P68BwMIQxXi_deiFwZ2-219" value="Success" style="dashed=1;edgeStyle=orthogonalEdgeStyle;rounded=0;orthogonalLoop=1;jettySize=auto;html=1;exitX=0;exitY=0.5;exitDx=0;exitDy=0;exitPerimeter=0;entryX=0;entryY=0.5;entryDx=0;entryDy=0;entryPerimeter=0;strokeColor=#007FFF;" parent="1" source="YImrFx-hV4mO0tuUi706-9" target="1P68BwMIQxXi_deiFwZ2-9" edge="1">
          <mxGeometry relative="1" as="geometry">
            <Array as="points">
              <mxPoint x="180" y="300"/>
              <mxPoint x="180" y="779"/>
            </Array>
          </mxGeometry>
        </mxCell>
        <mxCell id="YImrFx-hV4mO0tuUi706-9" value="End" style="strokeWidth=2;html=1;shape=mxgraph.flowchart.terminator;whiteSpace=wrap;fillColor=#E0E0E0;" parent="1" vertex="1">
          <mxGeometry x="240" y="280" width="40" height="40" as="geometry"/>
        </mxCell>
        <mxCell id="YImrFx-hV4mO0tuUi706-14" style="edgeStyle=orthogonalEdgeStyle;rounded=0;orthogonalLoop=1;jettySize=auto;html=1;exitX=0.5;exitY=1;exitDx=0;exitDy=0;entryX=0.5;entryY=0;entryDx=0;entryDy=0;" parent="1" source="YImrFx-hV4mO0tuUi706-11" target="YImrFx-hV4mO0tuUi706-13" edge="1">
          <mxGeometry relative="1" as="geometry"/>
        </mxCell>
        <mxCell id="YImrFx-hV4mO0tuUi706-11" value="构建BillingClient&lt;br&gt;&amp;lt;BillingClient.Builder&amp;gt;" style="rounded=1;whiteSpace=wrap;html=1;absoluteArcSize=1;arcSize=14;strokeWidth=2;fillColor=none;" parent="1" vertex="1">
          <mxGeometry x="680" y="280" width="240" height="40" as="geometry"/>
        </mxCell>
        <mxCell id="YImrFx-hV4mO0tuUi706-20" style="edgeStyle=orthogonalEdgeStyle;rounded=0;orthogonalLoop=1;jettySize=auto;html=1;exitX=1;exitY=0.5;exitDx=0;exitDy=0;entryX=0;entryY=0.5;entryDx=0;entryDy=0;" parent="1" source="YImrFx-hV4mO0tuUi706-13" target="YImrFx-hV4mO0tuUi706-19" edge="1">
          <mxGeometry relative="1" as="geometry"/>
        </mxCell>
        <mxCell id="YImrFx-hV4mO0tuUi706-13" value="建立连接&lt;br&gt;&amp;lt;BillingClient.startConnection&amp;gt;" style="rounded=1;whiteSpace=wrap;html=1;absoluteArcSize=1;arcSize=14;strokeWidth=2;fillColor=none;" parent="1" vertex="1">
          <mxGeometry x="680" y="360" width="240" height="40" as="geometry"/>
        </mxCell>
        <mxCell id="YImrFx-hV4mO0tuUi706-23" value="onBillingSetupFinished" style="edgeStyle=orthogonalEdgeStyle;rounded=0;orthogonalLoop=1;jettySize=auto;html=1;exitX=0.25;exitY=1;exitDx=0;exitDy=0;entryX=1;entryY=0.5;entryDx=0;entryDy=0;dashed=1;" parent="1" source="YImrFx-hV4mO0tuUi706-19" target="YImrFx-hV4mO0tuUi706-21" edge="1">
          <mxGeometry x="0.2308" y="-30" relative="1" as="geometry">
            <Array as="points">
              <mxPoint x="990" y="460"/>
            </Array>
            <mxPoint as="offset"/>
          </mxGeometry>
        </mxCell>
        <mxCell id="YImrFx-hV4mO0tuUi706-24" value="onBillingServiceDisconnected" style="edgeStyle=orthogonalEdgeStyle;rounded=0;orthogonalLoop=1;jettySize=auto;html=1;exitX=0.75;exitY=1;exitDx=0;exitDy=0;entryX=1;entryY=0.5;entryDx=0;entryDy=0;dashed=1;" parent="1" source="YImrFx-hV4mO0tuUi706-19" target="YImrFx-hV4mO0tuUi706-22" edge="1">
          <mxGeometry x="-0.1852" y="-20" relative="1" as="geometry">
            <mxPoint as="offset"/>
          </mxGeometry>
        </mxCell>
        <mxCell id="YImrFx-hV4mO0tuUi706-19" value="Google Play" style="shape=parallelogram;html=1;strokeWidth=2;perimeter=parallelogramPerimeter;whiteSpace=wrap;rounded=1;arcSize=12;size=0.23;fillColor=#D4E1F5;" parent="1" vertex="1">
          <mxGeometry x="960" y="360" width="120" height="40" as="geometry"/>
        </mxCell>
        <mxCell id="JIaDca9eBKveF-68zJ5j-15" value="-1" style="edgeStyle=orthogonalEdgeStyle;rounded=0;orthogonalLoop=1;jettySize=auto;html=1;exitX=0;exitY=0.75;exitDx=0;exitDy=0;entryX=0.5;entryY=0;entryDx=0;entryDy=0;entryPerimeter=0;" parent="1" source="YImrFx-hV4mO0tuUi706-21" target="JIaDca9eBKveF-68zJ5j-14" edge="1">
          <mxGeometry relative="1" as="geometry"/>
        </mxCell>
        <mxCell id="JIaDca9eBKveF-68zJ5j-17" value="Failure" style="edgeStyle=orthogonalEdgeStyle;rounded=0;orthogonalLoop=1;jettySize=auto;html=1;exitX=0;exitY=0.5;exitDx=0;exitDy=0;entryX=0.5;entryY=1;entryDx=0;entryDy=0;entryPerimeter=0;strokeColor=#FF0000;" parent="1" source="YImrFx-hV4mO0tuUi706-21" target="YImrFx-hV4mO0tuUi706-9" edge="1">
          <mxGeometry x="-0.2143" relative="1" as="geometry">
            <mxPoint as="offset"/>
            <Array as="points">
              <mxPoint x="260" y="460"/>
            </Array>
          </mxGeometry>
        </mxCell>
        <mxCell id="1P68BwMIQxXi_deiFwZ2-169" value="0" style="edgeStyle=orthogonalEdgeStyle;rounded=0;orthogonalLoop=1;jettySize=auto;html=1;exitX=0;exitY=0.25;exitDx=0;exitDy=0;entryX=1;entryY=0.5;entryDx=0;entryDy=0;entryPerimeter=0;strokeColor=#000000;" parent="1" source="YImrFx-hV4mO0tuUi706-21" target="YImrFx-hV4mO0tuUi706-9" edge="1">
          <mxGeometry relative="1" as="geometry">
            <Array as="points">
              <mxPoint x="520" y="450"/>
              <mxPoint x="520" y="300"/>
            </Array>
          </mxGeometry>
        </mxCell>
        <mxCell id="YImrFx-hV4mO0tuUi706-21" value="返回响应码&lt;br&gt;&amp;lt;BillingResult&amp;gt;" style="rounded=1;whiteSpace=wrap;html=1;absoluteArcSize=1;arcSize=14;strokeWidth=2;fillColor=none;" parent="1" vertex="1">
          <mxGeometry x="680" y="440" width="240" height="40" as="geometry"/>
        </mxCell>
        <mxCell id="JIaDca9eBKveF-68zJ5j-16" style="edgeStyle=orthogonalEdgeStyle;rounded=0;orthogonalLoop=1;jettySize=auto;html=1;exitX=0;exitY=0.5;exitDx=0;exitDy=0;entryX=1;entryY=0.5;entryDx=0;entryDy=0;entryPerimeter=0;" parent="1" source="YImrFx-hV4mO0tuUi706-22" target="JIaDca9eBKveF-68zJ5j-14" edge="1">
          <mxGeometry relative="1" as="geometry"/>
        </mxCell>
        <mxCell id="YImrFx-hV4mO0tuUi706-22" value="连接丢失" style="rounded=1;whiteSpace=wrap;html=1;absoluteArcSize=1;arcSize=14;strokeWidth=2;fillColor=none;" parent="1" vertex="1">
          <mxGeometry x="680" y="520" width="240" height="40" as="geometry"/>
        </mxCell>
        <mxCell id="JIaDca9eBKveF-68zJ5j-1" value="BillingClient.BillingResonseCode" style="swimlane;fontStyle=0;childLayout=stackLayout;horizontal=1;startSize=26;fillColor=none;horizontalStack=0;resizeParent=1;resizeParentMax=0;resizeLast=0;collapsible=1;marginBottom=0;" parent="1" vertex="1">
          <mxGeometry x="1200" y="160" width="240" height="338" as="geometry"/>
        </mxCell>
        <mxCell id="JIaDca9eBKveF-68zJ5j-2" value="SERVICE_TIMEOUT -&gt; -3" style="text;strokeColor=none;fillColor=none;align=left;verticalAlign=top;spacingLeft=4;spacingRight=4;overflow=hidden;rotatable=0;points=[[0,0.5],[1,0.5]];portConstraint=eastwest;" parent="JIaDca9eBKveF-68zJ5j-1" vertex="1">
          <mxGeometry y="26" width="240" height="26" as="geometry"/>
        </mxCell>
        <mxCell id="JIaDca9eBKveF-68zJ5j-3" value="FEATURE_NOT_SUPPORTED -&gt; -2" style="text;strokeColor=none;fillColor=none;align=left;verticalAlign=top;spacingLeft=4;spacingRight=4;overflow=hidden;rotatable=0;points=[[0,0.5],[1,0.5]];portConstraint=eastwest;" parent="JIaDca9eBKveF-68zJ5j-1" vertex="1">
          <mxGeometry y="52" width="240" height="26" as="geometry"/>
        </mxCell>
        <mxCell id="JIaDca9eBKveF-68zJ5j-7" value="SERVICE_DISCONNECTED -&gt; -1" style="text;strokeColor=none;fillColor=none;align=left;verticalAlign=top;spacingLeft=4;spacingRight=4;overflow=hidden;rotatable=0;points=[[0,0.5],[1,0.5]];portConstraint=eastwest;" parent="JIaDca9eBKveF-68zJ5j-1" vertex="1">
          <mxGeometry y="78" width="240" height="26" as="geometry"/>
        </mxCell>
        <mxCell id="JIaDca9eBKveF-68zJ5j-5" value="OK -&gt; 0" style="text;strokeColor=none;fillColor=none;align=left;verticalAlign=top;spacingLeft=4;spacingRight=4;overflow=hidden;rotatable=0;points=[[0,0.5],[1,0.5]];portConstraint=eastwest;" parent="JIaDca9eBKveF-68zJ5j-1" vertex="1">
          <mxGeometry y="104" width="240" height="26" as="geometry"/>
        </mxCell>
        <mxCell id="JIaDca9eBKveF-68zJ5j-6" value="USER_CANCELED -&gt; 1" style="text;strokeColor=none;fillColor=none;align=left;verticalAlign=top;spacingLeft=4;spacingRight=4;overflow=hidden;rotatable=0;points=[[0,0.5],[1,0.5]];portConstraint=eastwest;" parent="JIaDca9eBKveF-68zJ5j-1" vertex="1">
          <mxGeometry y="130" width="240" height="26" as="geometry"/>
        </mxCell>
        <mxCell id="JIaDca9eBKveF-68zJ5j-8" value="SERVICE_UNAVAILABLE -&gt; 2" style="text;strokeColor=none;fillColor=none;align=left;verticalAlign=top;spacingLeft=4;spacingRight=4;overflow=hidden;rotatable=0;points=[[0,0.5],[1,0.5]];portConstraint=eastwest;" parent="JIaDca9eBKveF-68zJ5j-1" vertex="1">
          <mxGeometry y="156" width="240" height="26" as="geometry"/>
        </mxCell>
        <mxCell id="JIaDca9eBKveF-68zJ5j-10" value="BILLING_UNAVAILABLE -&gt; 3" style="text;strokeColor=none;fillColor=none;align=left;verticalAlign=top;spacingLeft=4;spacingRight=4;overflow=hidden;rotatable=0;points=[[0,0.5],[1,0.5]];portConstraint=eastwest;" parent="JIaDca9eBKveF-68zJ5j-1" vertex="1">
          <mxGeometry y="182" width="240" height="26" as="geometry"/>
        </mxCell>
        <mxCell id="JIaDca9eBKveF-68zJ5j-9" value="ITEM_UNAVAILABLE -&gt; 4" style="text;strokeColor=none;fillColor=none;align=left;verticalAlign=top;spacingLeft=4;spacingRight=4;overflow=hidden;rotatable=0;points=[[0,0.5],[1,0.5]];portConstraint=eastwest;" parent="JIaDca9eBKveF-68zJ5j-1" vertex="1">
          <mxGeometry y="208" width="240" height="26" as="geometry"/>
        </mxCell>
        <mxCell id="JIaDca9eBKveF-68zJ5j-4" value="DEVELOPER_ERROR -&gt; 5" style="text;strokeColor=none;fillColor=none;align=left;verticalAlign=top;spacingLeft=4;spacingRight=4;overflow=hidden;rotatable=0;points=[[0,0.5],[1,0.5]];portConstraint=eastwest;" parent="JIaDca9eBKveF-68zJ5j-1" vertex="1">
          <mxGeometry y="234" width="240" height="26" as="geometry"/>
        </mxCell>
        <mxCell id="JIaDca9eBKveF-68zJ5j-13" value="ERROR -&gt; 6" style="text;strokeColor=none;fillColor=none;align=left;verticalAlign=top;spacingLeft=4;spacingRight=4;overflow=hidden;rotatable=0;points=[[0,0.5],[1,0.5]];portConstraint=eastwest;" parent="JIaDca9eBKveF-68zJ5j-1" vertex="1">
          <mxGeometry y="260" width="240" height="26" as="geometry"/>
        </mxCell>
        <mxCell id="JIaDca9eBKveF-68zJ5j-12" value="ITEM_ALREADY_OWNED -&gt; 7" style="text;strokeColor=none;fillColor=none;align=left;verticalAlign=top;spacingLeft=4;spacingRight=4;overflow=hidden;rotatable=0;points=[[0,0.5],[1,0.5]];portConstraint=eastwest;" parent="JIaDca9eBKveF-68zJ5j-1" vertex="1">
          <mxGeometry y="286" width="240" height="26" as="geometry"/>
        </mxCell>
        <mxCell id="JIaDca9eBKveF-68zJ5j-11" value="ITEM_NOT_OWNED -&gt; 8" style="text;strokeColor=none;fillColor=none;align=left;verticalAlign=top;spacingLeft=4;spacingRight=4;overflow=hidden;rotatable=0;points=[[0,0.5],[1,0.5]];portConstraint=eastwest;" parent="JIaDca9eBKveF-68zJ5j-1" vertex="1">
          <mxGeometry y="312" width="240" height="26" as="geometry"/>
        </mxCell>
        <mxCell id="JIaDca9eBKveF-68zJ5j-19" value="N" style="edgeStyle=orthogonalEdgeStyle;rounded=0;orthogonalLoop=1;jettySize=auto;html=1;exitX=0;exitY=0.5;exitDx=0;exitDy=0;exitPerimeter=0;entryX=0.5;entryY=1;entryDx=0;entryDy=0;entryPerimeter=0;strokeColor=#FF0000;" parent="1" source="JIaDca9eBKveF-68zJ5j-14" target="YImrFx-hV4mO0tuUi706-9" edge="1">
          <mxGeometry x="-0.8333" relative="1" as="geometry">
            <Array as="points">
              <mxPoint x="260" y="540"/>
            </Array>
            <mxPoint as="offset"/>
          </mxGeometry>
        </mxCell>
        <mxCell id="JIaDca9eBKveF-68zJ5j-14" value="重连？&lt;br&gt;（Option）" style="strokeWidth=2;html=1;shape=mxgraph.flowchart.decision;whiteSpace=wrap;fillColor=none;" parent="1" vertex="1">
          <mxGeometry x="400" y="520" width="240" height="40" as="geometry"/>
        </mxCell>
        <mxCell id="JIaDca9eBKveF-68zJ5j-28" style="edgeStyle=orthogonalEdgeStyle;rounded=0;orthogonalLoop=1;jettySize=auto;html=1;entryX=0.5;entryY=0;entryDx=0;entryDy=0;entryPerimeter=0;shadow=0;strokeColor=#000000;" parent="1" source="1P68BwMIQxXi_deiFwZ2-186" target="JIaDca9eBKveF-68zJ5j-25" edge="1">
          <mxGeometry relative="1" as="geometry">
            <mxPoint x="800" y="720" as="sourcePoint"/>
          </mxGeometry>
        </mxCell>
        <mxCell id="1P68BwMIQxXi_deiFwZ2-8" style="edgeStyle=orthogonalEdgeStyle;rounded=0;orthogonalLoop=1;jettySize=auto;html=1;exitX=1;exitY=0.5;exitDx=0;exitDy=0;entryX=0;entryY=0.5;entryDx=0;entryDy=0;strokeColor=#000000;" parent="1" source="JIaDca9eBKveF-68zJ5j-24" target="1P68BwMIQxXi_deiFwZ2-7" edge="1">
          <mxGeometry relative="1" as="geometry">
            <Array as="points">
              <mxPoint x="340" y="860"/>
              <mxPoint x="340" y="779"/>
            </Array>
          </mxGeometry>
        </mxCell>
        <mxCell id="JIaDca9eBKveF-68zJ5j-24" value="获取商品id列表" style="shape=parallelogram;html=1;strokeWidth=2;perimeter=parallelogramPerimeter;whiteSpace=wrap;rounded=1;arcSize=12;size=0.23;fillColor=#FFFF33;shadow=0;" parent="1" vertex="1">
          <mxGeometry x="200" y="840" width="120" height="40" as="geometry"/>
        </mxCell>
        <mxCell id="JIaDca9eBKveF-68zJ5j-30" value="Y" style="edgeStyle=orthogonalEdgeStyle;rounded=0;orthogonalLoop=1;jettySize=auto;html=1;exitX=0.5;exitY=1;exitDx=0;exitDy=0;exitPerimeter=0;shadow=0;strokeColor=#000000;" parent="1" source="JIaDca9eBKveF-68zJ5j-25" target="JIaDca9eBKveF-68zJ5j-29" edge="1">
          <mxGeometry relative="1" as="geometry"/>
        </mxCell>
        <mxCell id="1P68BwMIQxXi_deiFwZ2-268" value="N" style="edgeStyle=orthogonalEdgeStyle;rounded=0;orthogonalLoop=1;jettySize=auto;html=1;exitX=0;exitY=0.5;exitDx=0;exitDy=0;exitPerimeter=0;entryX=0.5;entryY=0;entryDx=0;entryDy=0;entryPerimeter=0;strokeColor=#FF0000;" parent="1" source="JIaDca9eBKveF-68zJ5j-25" target="1P68BwMIQxXi_deiFwZ2-121" edge="1">
          <mxGeometry relative="1" as="geometry">
            <Array as="points">
              <mxPoint x="520" y="780"/>
            </Array>
          </mxGeometry>
        </mxCell>
        <mxCell id="JIaDca9eBKveF-68zJ5j-25" value="连接可用？&lt;br&gt;有商品id？" style="strokeWidth=2;html=1;shape=mxgraph.flowchart.decision;whiteSpace=wrap;fillColor=none;" parent="1" vertex="1">
          <mxGeometry x="680" y="760" width="240" height="40" as="geometry"/>
        </mxCell>
        <mxCell id="JIaDca9eBKveF-68zJ5j-32" style="edgeStyle=orthogonalEdgeStyle;rounded=0;orthogonalLoop=1;jettySize=auto;html=1;exitX=0.5;exitY=1;exitDx=0;exitDy=0;entryX=0.5;entryY=0;entryDx=0;entryDy=0;shadow=0;strokeColor=#000000;" parent="1" source="JIaDca9eBKveF-68zJ5j-29" target="JIaDca9eBKveF-68zJ5j-31" edge="1">
          <mxGeometry relative="1" as="geometry"/>
        </mxCell>
        <mxCell id="JIaDca9eBKveF-68zJ5j-29" value="构建查询参数&lt;br&gt;&amp;lt;SkuDetailsParams.Builder&amp;gt;" style="rounded=1;whiteSpace=wrap;html=1;absoluteArcSize=1;arcSize=14;strokeWidth=2;fillColor=none;" parent="1" vertex="1">
          <mxGeometry x="680" y="840" width="240" height="40" as="geometry"/>
        </mxCell>
        <mxCell id="JIaDca9eBKveF-68zJ5j-34" style="edgeStyle=orthogonalEdgeStyle;rounded=0;orthogonalLoop=1;jettySize=auto;html=1;exitX=1;exitY=0.5;exitDx=0;exitDy=0;entryX=0;entryY=0.5;entryDx=0;entryDy=0;shadow=0;strokeColor=#000000;" parent="1" source="JIaDca9eBKveF-68zJ5j-31" target="JIaDca9eBKveF-68zJ5j-33" edge="1">
          <mxGeometry relative="1" as="geometry"/>
        </mxCell>
        <mxCell id="JIaDca9eBKveF-68zJ5j-31" value="开始查询&lt;br&gt;&amp;lt;BillingClient.querySkuDetailsAsync&amp;gt;" style="rounded=1;whiteSpace=wrap;html=1;absoluteArcSize=1;arcSize=14;strokeWidth=2;fillColor=none;" parent="1" vertex="1">
          <mxGeometry x="680" y="920" width="240" height="40" as="geometry"/>
        </mxCell>
        <mxCell id="JIaDca9eBKveF-68zJ5j-36" value="onSkuDetailsResponse" style="edgeStyle=orthogonalEdgeStyle;rounded=0;orthogonalLoop=1;jettySize=auto;html=1;exitX=0.5;exitY=1;exitDx=0;exitDy=0;entryX=1;entryY=0.5;entryDx=0;entryDy=0;shadow=0;strokeColor=#000000;dashed=1;" parent="1" source="JIaDca9eBKveF-68zJ5j-33" target="JIaDca9eBKveF-68zJ5j-35" edge="1">
          <mxGeometry x="-0.25" y="10" relative="1" as="geometry">
            <mxPoint x="10" y="-10" as="offset"/>
          </mxGeometry>
        </mxCell>
        <mxCell id="JIaDca9eBKveF-68zJ5j-33" value="Google Play" style="shape=parallelogram;html=1;strokeWidth=2;perimeter=parallelogramPerimeter;whiteSpace=wrap;rounded=1;arcSize=12;size=0.23;fillColor=#D4E1F5;" parent="1" vertex="1">
          <mxGeometry x="960" y="920" width="120" height="40" as="geometry"/>
        </mxCell>
        <mxCell id="JIaDca9eBKveF-68zJ5j-38" value="0" style="edgeStyle=orthogonalEdgeStyle;rounded=0;orthogonalLoop=1;jettySize=auto;html=1;exitX=0.5;exitY=1;exitDx=0;exitDy=0;shadow=0;strokeColor=#000000;" parent="1" source="JIaDca9eBKveF-68zJ5j-35" target="JIaDca9eBKveF-68zJ5j-37" edge="1">
          <mxGeometry relative="1" as="geometry"/>
        </mxCell>
        <mxCell id="JIaDca9eBKveF-68zJ5j-40" value="Failure" style="edgeStyle=orthogonalEdgeStyle;rounded=0;orthogonalLoop=1;jettySize=auto;html=1;exitX=0;exitY=0.75;exitDx=0;exitDy=0;entryX=0;entryY=0.25;entryDx=0;entryDy=0;shadow=0;strokeColor=#FF0000;" parent="1" source="JIaDca9eBKveF-68zJ5j-35" target="JIaDca9eBKveF-68zJ5j-37" edge="1">
          <mxGeometry relative="1" as="geometry">
            <mxPoint x="640" y="1020" as="targetPoint"/>
            <Array as="points">
              <mxPoint x="660" y="1030"/>
              <mxPoint x="660" y="1090"/>
            </Array>
          </mxGeometry>
        </mxCell>
        <mxCell id="JIaDca9eBKveF-68zJ5j-35" value="返回响应码 &amp;amp;&amp;nbsp;商品详情列表&lt;br&gt;&amp;lt;BillingResult,&amp;nbsp;SkuDetails&amp;gt;" style="rounded=1;whiteSpace=wrap;html=1;absoluteArcSize=1;arcSize=14;strokeWidth=2;fillColor=none;" parent="1" vertex="1">
          <mxGeometry x="680" y="1000" width="240" height="40" as="geometry"/>
        </mxCell>
        <mxCell id="JIaDca9eBKveF-68zJ5j-37" value="数据传递给上层&lt;br&gt;&amp;lt;LiveData&amp;gt;" style="rounded=1;whiteSpace=wrap;html=1;absoluteArcSize=1;arcSize=14;strokeWidth=2;fillColor=none;" parent="1" vertex="1">
          <mxGeometry x="680" y="1080" width="240" height="40" as="geometry"/>
        </mxCell>
        <mxCell id="JIaDca9eBKveF-68zJ5j-43" value="SkuDetails" style="swimlane;fontStyle=0;childLayout=stackLayout;horizontal=1;startSize=26;fillColor=none;horizontalStack=0;resizeParent=1;resizeParentMax=0;resizeLast=0;collapsible=1;marginBottom=0;" parent="1" vertex="1">
          <mxGeometry x="1200" y="520" width="240" height="588" as="geometry"/>
        </mxCell>
        <mxCell id="JIaDca9eBKveF-68zJ5j-44" value="+ mOriginalJson: String" style="text;strokeColor=none;fillColor=none;align=left;verticalAlign=top;spacingLeft=4;spacingRight=4;overflow=hidden;rotatable=0;points=[[0,0.5],[1,0.5]];portConstraint=eastwest;fontStyle=1" parent="JIaDca9eBKveF-68zJ5j-43" vertex="1">
          <mxGeometry y="26" width="240" height="26" as="geometry"/>
        </mxCell>
        <mxCell id="JIaDca9eBKveF-68zJ5j-54" value="" style="line;strokeWidth=1;fillColor=none;align=left;verticalAlign=middle;spacingTop=-1;spacingLeft=3;spacingRight=3;rotatable=0;labelPosition=right;points=[];portConstraint=eastwest;" parent="JIaDca9eBKveF-68zJ5j-43" vertex="1">
          <mxGeometry y="52" width="240" height="8" as="geometry"/>
        </mxCell>
        <mxCell id="JIaDca9eBKveF-68zJ5j-45" value="+ getSku(): String" style="text;strokeColor=none;fillColor=none;align=left;verticalAlign=top;spacingLeft=4;spacingRight=4;overflow=hidden;rotatable=0;points=[[0,0.5],[1,0.5]];portConstraint=eastwest;" parent="JIaDca9eBKveF-68zJ5j-43" vertex="1">
          <mxGeometry y="60" width="240" height="26" as="geometry"/>
        </mxCell>
        <mxCell id="JIaDca9eBKveF-68zJ5j-46" value="+ getType(): SkuType" style="text;strokeColor=none;fillColor=none;align=left;verticalAlign=top;spacingLeft=4;spacingRight=4;overflow=hidden;rotatable=0;points=[[0,0.5],[1,0.5]];portConstraint=eastwest;" parent="JIaDca9eBKveF-68zJ5j-43" vertex="1">
          <mxGeometry y="86" width="240" height="26" as="geometry"/>
        </mxCell>
        <mxCell id="JIaDca9eBKveF-68zJ5j-56" value="+ getPrice(): String" style="text;strokeColor=none;fillColor=none;align=left;verticalAlign=top;spacingLeft=4;spacingRight=4;overflow=hidden;rotatable=0;points=[[0,0.5],[1,0.5]];portConstraint=eastwest;" parent="JIaDca9eBKveF-68zJ5j-43" vertex="1">
          <mxGeometry y="112" width="240" height="26" as="geometry"/>
        </mxCell>
        <mxCell id="JIaDca9eBKveF-68zJ5j-57" value="+ getPriceAmoutMicros(): long" style="text;strokeColor=none;fillColor=none;align=left;verticalAlign=top;spacingLeft=4;spacingRight=4;overflow=hidden;rotatable=0;points=[[0,0.5],[1,0.5]];portConstraint=eastwest;" parent="JIaDca9eBKveF-68zJ5j-43" vertex="1">
          <mxGeometry y="138" width="240" height="26" as="geometry"/>
        </mxCell>
        <mxCell id="JIaDca9eBKveF-68zJ5j-58" value="+ getPriceCurrencyCode(): String" style="text;strokeColor=none;fillColor=none;align=left;verticalAlign=top;spacingLeft=4;spacingRight=4;overflow=hidden;rotatable=0;points=[[0,0.5],[1,0.5]];portConstraint=eastwest;" parent="JIaDca9eBKveF-68zJ5j-43" vertex="1">
          <mxGeometry y="164" width="240" height="26" as="geometry"/>
        </mxCell>
        <mxCell id="JIaDca9eBKveF-68zJ5j-59" value="+ getOriginalPrice(): String" style="text;strokeColor=none;fillColor=none;align=left;verticalAlign=top;spacingLeft=4;spacingRight=4;overflow=hidden;rotatable=0;points=[[0,0.5],[1,0.5]];portConstraint=eastwest;" parent="JIaDca9eBKveF-68zJ5j-43" vertex="1">
          <mxGeometry y="190" width="240" height="26" as="geometry"/>
        </mxCell>
        <mxCell id="JIaDca9eBKveF-68zJ5j-60" value="+ getOriginalPriceAmountMicros(): long" style="text;strokeColor=none;fillColor=none;align=left;verticalAlign=top;spacingLeft=4;spacingRight=4;overflow=hidden;rotatable=0;points=[[0,0.5],[1,0.5]];portConstraint=eastwest;" parent="JIaDca9eBKveF-68zJ5j-43" vertex="1">
          <mxGeometry y="216" width="240" height="26" as="geometry"/>
        </mxCell>
        <mxCell id="JIaDca9eBKveF-68zJ5j-62" value="+ geTitle(): String" style="text;strokeColor=none;fillColor=none;align=left;verticalAlign=top;spacingLeft=4;spacingRight=4;overflow=hidden;rotatable=0;points=[[0,0.5],[1,0.5]];portConstraint=eastwest;" parent="JIaDca9eBKveF-68zJ5j-43" vertex="1">
          <mxGeometry y="242" width="240" height="26" as="geometry"/>
        </mxCell>
        <mxCell id="JIaDca9eBKveF-68zJ5j-61" value="+ getDescription(): String" style="text;strokeColor=none;fillColor=none;align=left;verticalAlign=top;spacingLeft=4;spacingRight=4;overflow=hidden;rotatable=0;points=[[0,0.5],[1,0.5]];portConstraint=eastwest;" parent="JIaDca9eBKveF-68zJ5j-43" vertex="1">
          <mxGeometry y="268" width="240" height="26" as="geometry"/>
        </mxCell>
        <mxCell id="JIaDca9eBKveF-68zJ5j-70" value="+ getIconUrl(): String" style="text;strokeColor=none;fillColor=none;align=left;verticalAlign=top;spacingLeft=4;spacingRight=4;overflow=hidden;rotatable=0;points=[[0,0.5],[1,0.5]];portConstraint=eastwest;" parent="JIaDca9eBKveF-68zJ5j-43" vertex="1">
          <mxGeometry y="294" width="240" height="26" as="geometry"/>
        </mxCell>
        <mxCell id="JIaDca9eBKveF-68zJ5j-71" value="+ isRewarded(): boolean" style="text;strokeColor=none;fillColor=none;align=left;verticalAlign=top;spacingLeft=4;spacingRight=4;overflow=hidden;rotatable=0;points=[[0,0.5],[1,0.5]];portConstraint=eastwest;" parent="JIaDca9eBKveF-68zJ5j-43" vertex="1">
          <mxGeometry y="320" width="240" height="26" as="geometry"/>
        </mxCell>
        <mxCell id="JIaDca9eBKveF-68zJ5j-73" value="+ getIconUrl(): String" style="text;strokeColor=none;fillColor=none;align=left;verticalAlign=top;spacingLeft=4;spacingRight=4;overflow=hidden;rotatable=0;points=[[0,0.5],[1,0.5]];portConstraint=eastwest;" parent="JIaDca9eBKveF-68zJ5j-43" vertex="1">
          <mxGeometry y="346" width="240" height="26" as="geometry"/>
        </mxCell>
        <mxCell id="JIaDca9eBKveF-68zJ5j-72" value="- getSkuDetailsToken(): String" style="text;strokeColor=none;fillColor=none;align=left;verticalAlign=top;spacingLeft=4;spacingRight=4;overflow=hidden;rotatable=0;points=[[0,0.5],[1,0.5]];portConstraint=eastwest;" parent="JIaDca9eBKveF-68zJ5j-43" vertex="1">
          <mxGeometry y="372" width="240" height="26" as="geometry"/>
        </mxCell>
        <mxCell id="JIaDca9eBKveF-68zJ5j-74" value="- rewardToken(): String" style="text;strokeColor=none;fillColor=none;align=left;verticalAlign=top;spacingLeft=4;spacingRight=4;overflow=hidden;rotatable=0;points=[[0,0.5],[1,0.5]];portConstraint=eastwest;" parent="JIaDca9eBKveF-68zJ5j-43" vertex="1">
          <mxGeometry y="398" width="240" height="26" as="geometry"/>
        </mxCell>
        <mxCell id="JIaDca9eBKveF-68zJ5j-64" value="" style="line;strokeWidth=1;fillColor=none;align=left;verticalAlign=middle;spacingTop=-1;spacingLeft=3;spacingRight=3;rotatable=0;labelPosition=right;points=[];portConstraint=eastwest;" parent="JIaDca9eBKveF-68zJ5j-43" vertex="1">
          <mxGeometry y="424" width="240" height="8" as="geometry"/>
        </mxCell>
        <mxCell id="JIaDca9eBKveF-68zJ5j-63" value="+ getSubscriptionPeriod(): String" style="text;strokeColor=none;fillColor=none;align=left;verticalAlign=top;spacingLeft=4;spacingRight=4;overflow=hidden;rotatable=0;points=[[0,0.5],[1,0.5]];portConstraint=eastwest;" parent="JIaDca9eBKveF-68zJ5j-43" vertex="1">
          <mxGeometry y="432" width="240" height="26" as="geometry"/>
        </mxCell>
        <mxCell id="JIaDca9eBKveF-68zJ5j-65" value="+ getFreeTrialPeriod(): String" style="text;strokeColor=none;fillColor=none;align=left;verticalAlign=top;spacingLeft=4;spacingRight=4;overflow=hidden;rotatable=0;points=[[0,0.5],[1,0.5]];portConstraint=eastwest;" parent="JIaDca9eBKveF-68zJ5j-43" vertex="1">
          <mxGeometry y="458" width="240" height="26" as="geometry"/>
        </mxCell>
        <mxCell id="JIaDca9eBKveF-68zJ5j-66" value="+ getIntroductoryPrice(): String" style="text;strokeColor=none;fillColor=none;align=left;verticalAlign=top;spacingLeft=4;spacingRight=4;overflow=hidden;rotatable=0;points=[[0,0.5],[1,0.5]];portConstraint=eastwest;" parent="JIaDca9eBKveF-68zJ5j-43" vertex="1">
          <mxGeometry y="484" width="240" height="26" as="geometry"/>
        </mxCell>
        <mxCell id="JIaDca9eBKveF-68zJ5j-67" value="+ getIntroductoryPriceAmountMicros(): long" style="text;strokeColor=none;fillColor=none;align=left;verticalAlign=top;spacingLeft=4;spacingRight=4;overflow=hidden;rotatable=0;points=[[0,0.5],[1,0.5]];portConstraint=eastwest;" parent="JIaDca9eBKveF-68zJ5j-43" vertex="1">
          <mxGeometry y="510" width="240" height="26" as="geometry"/>
        </mxCell>
        <mxCell id="JIaDca9eBKveF-68zJ5j-68" value="+ getIntroductoryPricePeriod(): long" style="text;strokeColor=none;fillColor=none;align=left;verticalAlign=top;spacingLeft=4;spacingRight=4;overflow=hidden;rotatable=0;points=[[0,0.5],[1,0.5]];portConstraint=eastwest;" parent="JIaDca9eBKveF-68zJ5j-43" vertex="1">
          <mxGeometry y="536" width="240" height="26" as="geometry"/>
        </mxCell>
        <mxCell id="JIaDca9eBKveF-68zJ5j-69" value="+ getIntroductoryPriceCycles(): String" style="text;strokeColor=none;fillColor=none;align=left;verticalAlign=top;spacingLeft=4;spacingRight=4;overflow=hidden;rotatable=0;points=[[0,0.5],[1,0.5]];portConstraint=eastwest;" parent="JIaDca9eBKveF-68zJ5j-43" vertex="1">
          <mxGeometry y="562" width="240" height="26" as="geometry"/>
        </mxCell>
        <mxCell id="1P68BwMIQxXi_deiFwZ2-12" style="edgeStyle=orthogonalEdgeStyle;rounded=0;orthogonalLoop=1;jettySize=auto;html=1;exitX=0.5;exitY=0;exitDx=0;exitDy=0;strokeColor=#000000;entryX=0;entryY=0.5;entryDx=0;entryDy=0;" parent="1" source="1P68BwMIQxXi_deiFwZ2-7" target="1P68BwMIQxXi_deiFwZ2-186" edge="1">
          <mxGeometry relative="1" as="geometry"/>
        </mxCell>
        <mxCell id="1P68BwMIQxXi_deiFwZ2-7" value="设置商品id" style="rounded=1;whiteSpace=wrap;html=1;absoluteArcSize=1;arcSize=14;strokeWidth=2;fillColor=none;" parent="1" vertex="1">
          <mxGeometry x="380" y="760" width="120" height="40" as="geometry"/>
        </mxCell>
        <mxCell id="1P68BwMIQxXi_deiFwZ2-10" style="edgeStyle=orthogonalEdgeStyle;rounded=0;orthogonalLoop=1;jettySize=auto;html=1;exitX=0.5;exitY=1;exitDx=0;exitDy=0;exitPerimeter=0;entryX=0.5;entryY=0;entryDx=0;entryDy=0;strokeColor=#000000;" parent="1" source="1P68BwMIQxXi_deiFwZ2-9" target="JIaDca9eBKveF-68zJ5j-24" edge="1">
          <mxGeometry relative="1" as="geometry"/>
        </mxCell>
        <mxCell id="1P68BwMIQxXi_deiFwZ2-227" style="dashed=1;edgeStyle=orthogonalEdgeStyle;rounded=0;orthogonalLoop=1;jettySize=auto;html=1;exitX=0.5;exitY=0;exitDx=0;exitDy=0;exitPerimeter=0;entryX=0.5;entryY=1;entryDx=0;entryDy=0;strokeColor=#000000;" parent="1" source="1P68BwMIQxXi_deiFwZ2-9" target="1P68BwMIQxXi_deiFwZ2-225" edge="1">
          <mxGeometry relative="1" as="geometry"/>
        </mxCell>
        <mxCell id="1P68BwMIQxXi_deiFwZ2-9" value="Start" style="strokeWidth=2;html=1;shape=mxgraph.flowchart.start_2;whiteSpace=wrap;fillColor=#E0E0E0;" parent="1" vertex="1">
          <mxGeometry x="240" y="759" width="40" height="40" as="geometry"/>
        </mxCell>
        <mxCell id="1P68BwMIQxXi_deiFwZ2-16" value="发起购买" style="edgeStyle=orthogonalEdgeStyle;rounded=0;orthogonalLoop=1;jettySize=auto;html=1;entryX=0;entryY=0.5;entryDx=0;entryDy=0;strokeColor=#000000;" parent="1" source="1P68BwMIQxXi_deiFwZ2-233" target="1P68BwMIQxXi_deiFwZ2-26" edge="1">
          <mxGeometry relative="1" as="geometry">
            <mxPoint x="320" y="1260" as="sourcePoint"/>
          </mxGeometry>
        </mxCell>
        <mxCell id="1P68BwMIQxXi_deiFwZ2-232" style="dashed=1;edgeStyle=orthogonalEdgeStyle;rounded=0;orthogonalLoop=1;jettySize=auto;html=1;exitX=0.5;exitY=0;exitDx=0;exitDy=0;exitPerimeter=0;strokeColor=#000000;" parent="1" source="1P68BwMIQxXi_deiFwZ2-13" target="1P68BwMIQxXi_deiFwZ2-233" edge="1">
          <mxGeometry relative="1" as="geometry">
            <mxPoint x="260" y="1280" as="targetPoint"/>
          </mxGeometry>
        </mxCell>
        <mxCell id="1P68BwMIQxXi_deiFwZ2-13" value="Start" style="strokeWidth=2;html=1;shape=mxgraph.flowchart.start_2;whiteSpace=wrap;fillColor=#E0E0E0;" parent="1" vertex="1">
          <mxGeometry x="240" y="1320" width="40" height="40" as="geometry"/>
        </mxCell>
        <mxCell id="1P68BwMIQxXi_deiFwZ2-18" style="edgeStyle=orthogonalEdgeStyle;rounded=0;orthogonalLoop=1;jettySize=auto;html=1;exitX=0.5;exitY=1;exitDx=0;exitDy=0;strokeColor=#000000;" parent="1" source="1P68BwMIQxXi_deiFwZ2-14" target="1P68BwMIQxXi_deiFwZ2-254" edge="1">
          <mxGeometry relative="1" as="geometry"/>
        </mxCell>
        <mxCell id="1P68BwMIQxXi_deiFwZ2-14" value="构建购买参数&lt;br&gt;&amp;lt;BillingFlowParams.Builder&amp;gt;" style="rounded=1;whiteSpace=wrap;html=1;absoluteArcSize=1;arcSize=14;strokeWidth=2;fillColor=none;" parent="1" vertex="1">
          <mxGeometry x="680" y="1320" width="240" height="40" as="geometry"/>
        </mxCell>
        <mxCell id="1P68BwMIQxXi_deiFwZ2-20" value="Y" style="edgeStyle=orthogonalEdgeStyle;rounded=0;orthogonalLoop=1;jettySize=auto;html=1;strokeColor=#000000;" parent="1" source="1P68BwMIQxXi_deiFwZ2-254" target="1P68BwMIQxXi_deiFwZ2-17" edge="1">
          <mxGeometry relative="1" as="geometry">
            <mxPoint x="800" y="1480" as="targetPoint"/>
            <Array as="points"/>
          </mxGeometry>
        </mxCell>
        <mxCell id="1P68BwMIQxXi_deiFwZ2-17" value="启动购买流程&lt;br&gt;&amp;lt;BillingClient.launchBillingFlow&amp;gt;" style="rounded=1;whiteSpace=wrap;html=1;absoluteArcSize=1;arcSize=14;strokeWidth=2;fillColor=none;" parent="1" vertex="1">
          <mxGeometry x="680" y="1480" width="240" height="40" as="geometry"/>
        </mxCell>
        <mxCell id="1P68BwMIQxXi_deiFwZ2-22" value="&lt;span style=&quot;font-size: 11px&quot;&gt;onPurchasesUpdated&lt;/span&gt;" style="dashed=1;edgeStyle=orthogonalEdgeStyle;rounded=0;orthogonalLoop=1;jettySize=auto;html=1;exitX=0.5;exitY=1;exitDx=0;exitDy=0;entryX=1;entryY=0.5;entryDx=0;entryDy=0;strokeColor=#000000;" parent="1" source="1P68BwMIQxXi_deiFwZ2-19" target="1P68BwMIQxXi_deiFwZ2-21" edge="1">
          <mxGeometry x="-0.25" relative="1" as="geometry">
            <mxPoint as="offset"/>
          </mxGeometry>
        </mxCell>
        <mxCell id="1P68BwMIQxXi_deiFwZ2-19" value="Google Play&lt;br&gt;展示购买屏幕" style="shape=parallelogram;html=1;strokeWidth=2;perimeter=parallelogramPerimeter;whiteSpace=wrap;rounded=1;arcSize=12;size=0.23;fillColor=#D4E1F5;" parent="1" vertex="1">
          <mxGeometry x="960" y="1480" width="120" height="40" as="geometry"/>
        </mxCell>
        <mxCell id="1P68BwMIQxXi_deiFwZ2-35" value="0" style="edgeStyle=orthogonalEdgeStyle;rounded=0;orthogonalLoop=1;jettySize=auto;html=1;exitX=0.5;exitY=1;exitDx=0;exitDy=0;entryX=0.5;entryY=0;entryDx=0;entryDy=0;strokeColor=#000000;" parent="1" source="1P68BwMIQxXi_deiFwZ2-21" target="1P68BwMIQxXi_deiFwZ2-34" edge="1">
          <mxGeometry relative="1" as="geometry"/>
        </mxCell>
        <mxCell id="1P68BwMIQxXi_deiFwZ2-36" value="except 0 &amp;amp; -1" style="edgeStyle=orthogonalEdgeStyle;rounded=0;orthogonalLoop=1;jettySize=auto;html=1;exitX=0.25;exitY=1;exitDx=0;exitDy=0;entryX=1;entryY=0.5;entryDx=0;entryDy=0;entryPerimeter=0;strokeColor=#FF0000;" parent="1" source="1P68BwMIQxXi_deiFwZ2-21" target="1P68BwMIQxXi_deiFwZ2-23" edge="1">
          <mxGeometry x="-0.285" relative="1" as="geometry">
            <Array as="points">
              <mxPoint x="740" y="1620"/>
              <mxPoint x="320" y="1620"/>
              <mxPoint x="320" y="1420"/>
            </Array>
            <mxPoint as="offset"/>
          </mxGeometry>
        </mxCell>
        <mxCell id="1P68BwMIQxXi_deiFwZ2-238" value="-1" style="edgeStyle=orthogonalEdgeStyle;rounded=0;orthogonalLoop=1;jettySize=auto;html=1;exitX=0;exitY=0.5;exitDx=0;exitDy=0;strokeColor=#000000;" parent="1" source="1P68BwMIQxXi_deiFwZ2-21" target="1P68BwMIQxXi_deiFwZ2-237" edge="1">
          <mxGeometry relative="1" as="geometry"/>
        </mxCell>
        <mxCell id="1P68BwMIQxXi_deiFwZ2-21" value="返回响应码 &amp;amp;&amp;nbsp;收据&lt;br&gt;&amp;lt;BillingResult, Purchase&amp;gt;" style="rounded=1;whiteSpace=wrap;html=1;absoluteArcSize=1;arcSize=14;strokeWidth=2;fillColor=none;" parent="1" vertex="1">
          <mxGeometry x="680" y="1560" width="240" height="40" as="geometry"/>
        </mxCell>
        <mxCell id="1P68BwMIQxXi_deiFwZ2-92" value="ITEM_ALREADY_OWNED" style="dashed=1;edgeStyle=orthogonalEdgeStyle;rounded=0;orthogonalLoop=1;jettySize=auto;html=1;exitX=0;exitY=0.5;exitDx=0;exitDy=0;exitPerimeter=0;entryX=0;entryY=0.5;entryDx=0;entryDy=0;entryPerimeter=0;strokeColor=#007FFF;" parent="1" source="1P68BwMIQxXi_deiFwZ2-23" target="1P68BwMIQxXi_deiFwZ2-84" edge="1">
          <mxGeometry relative="1" as="geometry">
            <Array as="points">
              <mxPoint x="180" y="1420"/>
              <mxPoint x="180" y="1980"/>
            </Array>
            <mxPoint as="offset"/>
          </mxGeometry>
        </mxCell>
        <mxCell id="1P68BwMIQxXi_deiFwZ2-23" value="End" style="strokeWidth=2;html=1;shape=mxgraph.flowchart.terminator;whiteSpace=wrap;fillColor=#E0E0E0;" parent="1" vertex="1">
          <mxGeometry x="240" y="1400" width="40" height="40" as="geometry"/>
        </mxCell>
        <mxCell id="1P68BwMIQxXi_deiFwZ2-28" value="创建失败" style="dashed=1;edgeStyle=orthogonalEdgeStyle;rounded=0;orthogonalLoop=1;jettySize=auto;html=1;exitX=0.5;exitY=1;exitDx=0;exitDy=0;strokeColor=#FF0000;" parent="1" source="1P68BwMIQxXi_deiFwZ2-25" target="1P68BwMIQxXi_deiFwZ2-23" edge="1">
          <mxGeometry relative="1" as="geometry">
            <Array as="points">
              <mxPoint x="1020" y="1300"/>
              <mxPoint x="320" y="1300"/>
              <mxPoint x="320" y="1420"/>
            </Array>
          </mxGeometry>
        </mxCell>
        <mxCell id="1P68BwMIQxXi_deiFwZ2-30" style="dashed=1;edgeStyle=orthogonalEdgeStyle;rounded=0;orthogonalLoop=1;jettySize=auto;html=1;exitX=0.5;exitY=1;exitDx=0;exitDy=0;entryX=1;entryY=0.5;entryDx=0;entryDy=0;strokeColor=#000000;" parent="1" source="1P68BwMIQxXi_deiFwZ2-25" target="1P68BwMIQxXi_deiFwZ2-14" edge="1">
          <mxGeometry relative="1" as="geometry"/>
        </mxCell>
        <mxCell id="1P68BwMIQxXi_deiFwZ2-25" value="创建订单" style="shape=parallelogram;html=1;strokeWidth=2;perimeter=parallelogramPerimeter;whiteSpace=wrap;rounded=1;arcSize=12;size=0.23;fillColor=#FFFF33;shadow=0;" parent="1" vertex="1">
          <mxGeometry x="960" y="1240" width="120" height="40" as="geometry"/>
        </mxCell>
        <mxCell id="1P68BwMIQxXi_deiFwZ2-27" style="edgeStyle=orthogonalEdgeStyle;rounded=0;orthogonalLoop=1;jettySize=auto;html=1;exitX=1;exitY=0.5;exitDx=0;exitDy=0;entryX=0;entryY=0.5;entryDx=0;entryDy=0;strokeColor=#000000;" parent="1" source="1P68BwMIQxXi_deiFwZ2-26" target="1P68BwMIQxXi_deiFwZ2-25" edge="1">
          <mxGeometry relative="1" as="geometry"/>
        </mxCell>
        <mxCell id="1P68BwMIQxXi_deiFwZ2-26" value="商品详情" style="rounded=1;whiteSpace=wrap;html=1;absoluteArcSize=1;arcSize=14;strokeWidth=2;fillColor=none;" parent="1" vertex="1">
          <mxGeometry x="680" y="1240" width="240" height="40" as="geometry"/>
        </mxCell>
        <mxCell id="1P68BwMIQxXi_deiFwZ2-38" value="UNSPECIFIED_STATE" style="edgeStyle=orthogonalEdgeStyle;rounded=0;orthogonalLoop=1;jettySize=auto;html=1;exitX=0;exitY=0.5;exitDx=0;exitDy=0;entryX=1;entryY=0.5;entryDx=0;entryDy=0;entryPerimeter=0;strokeColor=#FF0000;" parent="1" source="1P68BwMIQxXi_deiFwZ2-34" target="1P68BwMIQxXi_deiFwZ2-37" edge="1">
          <mxGeometry relative="1" as="geometry"/>
        </mxCell>
        <mxCell id="1P68BwMIQxXi_deiFwZ2-41" value="PURCHASED&lt;br&gt;&amp;amp;&lt;br&gt;PENDING" style="edgeStyle=orthogonalEdgeStyle;rounded=0;orthogonalLoop=1;jettySize=auto;html=1;exitX=1;exitY=0.5;exitDx=0;exitDy=0;entryX=0;entryY=0.5;entryDx=0;entryDy=0;strokeColor=#000000;" parent="1" source="1P68BwMIQxXi_deiFwZ2-34" target="1P68BwMIQxXi_deiFwZ2-40" edge="1">
          <mxGeometry x="0.1111" y="30" relative="1" as="geometry">
            <mxPoint as="offset"/>
          </mxGeometry>
        </mxCell>
        <mxCell id="1P68BwMIQxXi_deiFwZ2-34" value="收据状态&lt;br&gt;&amp;lt;Purchase.getPurchaseState&amp;gt;" style="rounded=1;whiteSpace=wrap;html=1;absoluteArcSize=1;arcSize=14;strokeWidth=2;fillColor=none;" parent="1" vertex="1">
          <mxGeometry x="680" y="1640" width="240" height="40" as="geometry"/>
        </mxCell>
        <mxCell id="1P68BwMIQxXi_deiFwZ2-43" style="edgeStyle=orthogonalEdgeStyle;rounded=0;orthogonalLoop=1;jettySize=auto;html=1;exitX=0;exitY=0.5;exitDx=0;exitDy=0;exitPerimeter=0;entryX=1;entryY=0.5;entryDx=0;entryDy=0;entryPerimeter=0;strokeColor=#FF0000;" parent="1" source="1P68BwMIQxXi_deiFwZ2-37" target="1P68BwMIQxXi_deiFwZ2-23" edge="1">
          <mxGeometry relative="1" as="geometry">
            <Array as="points">
              <mxPoint x="320" y="1660"/>
              <mxPoint x="320" y="1420"/>
            </Array>
          </mxGeometry>
        </mxCell>
        <mxCell id="1P68BwMIQxXi_deiFwZ2-37" value="Ignore" style="strokeWidth=2;html=1;shape=mxgraph.flowchart.terminator;whiteSpace=wrap;fillColor=#E0E0E0;" parent="1" vertex="1">
          <mxGeometry x="400" y="1640" width="40" height="40" as="geometry"/>
        </mxCell>
        <mxCell id="1P68BwMIQxXi_deiFwZ2-42" value="验证失败 /&amp;nbsp;发货失败" style="dashed=1;edgeStyle=orthogonalEdgeStyle;rounded=0;orthogonalLoop=1;jettySize=auto;html=1;exitX=0.5;exitY=1;exitDx=0;exitDy=0;entryX=1;entryY=0.5;entryDx=0;entryDy=0;entryPerimeter=0;strokeColor=#FF0000;" parent="1" source="1P68BwMIQxXi_deiFwZ2-40" target="1P68BwMIQxXi_deiFwZ2-23" edge="1">
          <mxGeometry relative="1" as="geometry">
            <Array as="points">
              <mxPoint x="1020" y="1700"/>
              <mxPoint x="320" y="1700"/>
              <mxPoint x="320" y="1420"/>
            </Array>
          </mxGeometry>
        </mxCell>
        <mxCell id="1P68BwMIQxXi_deiFwZ2-45" style="dashed=1;edgeStyle=orthogonalEdgeStyle;rounded=0;orthogonalLoop=1;jettySize=auto;html=1;exitX=0.5;exitY=1;exitDx=0;exitDy=0;entryX=1;entryY=0.5;entryDx=0;entryDy=0;strokeColor=#000000;" parent="1" source="1P68BwMIQxXi_deiFwZ2-40" target="1P68BwMIQxXi_deiFwZ2-44" edge="1">
          <mxGeometry relative="1" as="geometry">
            <Array as="points">
              <mxPoint x="1020" y="1740"/>
            </Array>
          </mxGeometry>
        </mxCell>
        <mxCell id="1P68BwMIQxXi_deiFwZ2-40" value="验证支付并发货" style="shape=parallelogram;html=1;strokeWidth=2;perimeter=parallelogramPerimeter;whiteSpace=wrap;rounded=1;arcSize=12;size=0.23;fillColor=#FFFF33;shadow=0;" parent="1" vertex="1">
          <mxGeometry x="960" y="1640" width="120" height="40" as="geometry"/>
        </mxCell>
        <mxCell id="1P68BwMIQxXi_deiFwZ2-47" style="edgeStyle=orthogonalEdgeStyle;rounded=0;orthogonalLoop=1;jettySize=auto;html=1;exitX=0;exitY=0.5;exitDx=0;exitDy=0;strokeColor=#000000;entryX=0.5;entryY=1;entryDx=0;entryDy=0;entryPerimeter=0;" parent="1" source="1P68BwMIQxXi_deiFwZ2-44" target="1P68BwMIQxXi_deiFwZ2-23" edge="1">
          <mxGeometry relative="1" as="geometry">
            <mxPoint x="220" y="1370" as="targetPoint"/>
          </mxGeometry>
        </mxCell>
        <mxCell id="1P68BwMIQxXi_deiFwZ2-44" value="订单完成" style="rounded=1;whiteSpace=wrap;html=1;absoluteArcSize=1;arcSize=14;strokeWidth=2;fillColor=none;" parent="1" vertex="1">
          <mxGeometry x="680" y="1720" width="240" height="40" as="geometry"/>
        </mxCell>
        <mxCell id="1P68BwMIQxXi_deiFwZ2-53" value="Purchase" style="swimlane;fontStyle=0;childLayout=stackLayout;horizontal=1;startSize=26;fillColor=none;horizontalStack=0;resizeParent=1;resizeParentMax=0;resizeLast=0;collapsible=1;marginBottom=0;" parent="1" vertex="1">
          <mxGeometry x="1200" y="1200" width="240" height="320" as="geometry"/>
        </mxCell>
        <mxCell id="1P68BwMIQxXi_deiFwZ2-66" value="+ mOriginalJson: String" style="text;strokeColor=none;fillColor=none;align=left;verticalAlign=top;spacingLeft=4;spacingRight=4;overflow=hidden;rotatable=0;points=[[0,0.5],[1,0.5]];portConstraint=eastwest;fontStyle=1" parent="1P68BwMIQxXi_deiFwZ2-53" vertex="1">
          <mxGeometry y="26" width="240" height="26" as="geometry"/>
        </mxCell>
        <mxCell id="1P68BwMIQxXi_deiFwZ2-68" value="+ mSignature: String" style="text;strokeColor=none;fillColor=none;align=left;verticalAlign=top;spacingLeft=4;spacingRight=4;overflow=hidden;rotatable=0;points=[[0,0.5],[1,0.5]];portConstraint=eastwest;fontStyle=1" parent="1P68BwMIQxXi_deiFwZ2-53" vertex="1">
          <mxGeometry y="52" width="240" height="26" as="geometry"/>
        </mxCell>
        <mxCell id="1P68BwMIQxXi_deiFwZ2-67" value="" style="line;strokeWidth=1;fillColor=none;align=left;verticalAlign=middle;spacingTop=-1;spacingLeft=3;spacingRight=3;rotatable=0;labelPosition=right;points=[];portConstraint=eastwest;" parent="1P68BwMIQxXi_deiFwZ2-53" vertex="1">
          <mxGeometry y="78" width="240" height="8" as="geometry"/>
        </mxCell>
        <mxCell id="1P68BwMIQxXi_deiFwZ2-54" value="+ getOrderId(): String" style="text;strokeColor=none;fillColor=none;align=left;verticalAlign=top;spacingLeft=4;spacingRight=4;overflow=hidden;rotatable=0;points=[[0,0.5],[1,0.5]];portConstraint=eastwest;" parent="1P68BwMIQxXi_deiFwZ2-53" vertex="1">
          <mxGeometry y="86" width="240" height="26" as="geometry"/>
        </mxCell>
        <mxCell id="1P68BwMIQxXi_deiFwZ2-55" value="+ getPackageName(): String" style="text;strokeColor=none;fillColor=none;align=left;verticalAlign=top;spacingLeft=4;spacingRight=4;overflow=hidden;rotatable=0;points=[[0,0.5],[1,0.5]];portConstraint=eastwest;" parent="1P68BwMIQxXi_deiFwZ2-53" vertex="1">
          <mxGeometry y="112" width="240" height="26" as="geometry"/>
        </mxCell>
        <mxCell id="1P68BwMIQxXi_deiFwZ2-56" value="+ getSku(): String" style="text;strokeColor=none;fillColor=none;align=left;verticalAlign=top;spacingLeft=4;spacingRight=4;overflow=hidden;rotatable=0;points=[[0,0.5],[1,0.5]];portConstraint=eastwest;" parent="1P68BwMIQxXi_deiFwZ2-53" vertex="1">
          <mxGeometry y="138" width="240" height="26" as="geometry"/>
        </mxCell>
        <mxCell id="1P68BwMIQxXi_deiFwZ2-57" value="+ getPurchaseTime(): long" style="text;strokeColor=none;fillColor=none;align=left;verticalAlign=top;spacingLeft=4;spacingRight=4;overflow=hidden;rotatable=0;points=[[0,0.5],[1,0.5]];portConstraint=eastwest;" parent="1P68BwMIQxXi_deiFwZ2-53" vertex="1">
          <mxGeometry y="164" width="240" height="26" as="geometry"/>
        </mxCell>
        <mxCell id="1P68BwMIQxXi_deiFwZ2-58" value="+ getPurchaseToken(): String" style="text;strokeColor=none;fillColor=none;align=left;verticalAlign=top;spacingLeft=4;spacingRight=4;overflow=hidden;rotatable=0;points=[[0,0.5],[1,0.5]];portConstraint=eastwest;" parent="1P68BwMIQxXi_deiFwZ2-53" vertex="1">
          <mxGeometry y="190" width="240" height="26" as="geometry"/>
        </mxCell>
        <mxCell id="1P68BwMIQxXi_deiFwZ2-59" value="+ getPurchaseState(): PurchaseState" style="text;strokeColor=none;fillColor=none;align=left;verticalAlign=top;spacingLeft=4;spacingRight=4;overflow=hidden;rotatable=0;points=[[0,0.5],[1,0.5]];portConstraint=eastwest;" parent="1P68BwMIQxXi_deiFwZ2-53" vertex="1">
          <mxGeometry y="216" width="240" height="26" as="geometry"/>
        </mxCell>
        <mxCell id="1P68BwMIQxXi_deiFwZ2-60" value="+ getDeveloperPayLoad(): String" style="text;strokeColor=none;fillColor=none;align=left;verticalAlign=top;spacingLeft=4;spacingRight=4;overflow=hidden;rotatable=0;points=[[0,0.5],[1,0.5]];portConstraint=eastwest;" parent="1P68BwMIQxXi_deiFwZ2-53" vertex="1">
          <mxGeometry y="242" width="240" height="26" as="geometry"/>
        </mxCell>
        <mxCell id="1P68BwMIQxXi_deiFwZ2-61" value="+ isAcknowledged(): boolean" style="text;strokeColor=none;fillColor=none;align=left;verticalAlign=top;spacingLeft=4;spacingRight=4;overflow=hidden;rotatable=0;points=[[0,0.5],[1,0.5]];portConstraint=eastwest;" parent="1P68BwMIQxXi_deiFwZ2-53" vertex="1">
          <mxGeometry y="268" width="240" height="26" as="geometry"/>
        </mxCell>
        <mxCell id="1P68BwMIQxXi_deiFwZ2-62" value="+ isAuthRenewing(): boolean" style="text;strokeColor=none;fillColor=none;align=left;verticalAlign=top;spacingLeft=4;spacingRight=4;overflow=hidden;rotatable=0;points=[[0,0.5],[1,0.5]];portConstraint=eastwest;" parent="1P68BwMIQxXi_deiFwZ2-53" vertex="1">
          <mxGeometry y="294" width="240" height="26" as="geometry"/>
        </mxCell>
        <mxCell id="1P68BwMIQxXi_deiFwZ2-69" value="Purchase.PurchaseState" style="swimlane;fontStyle=0;childLayout=stackLayout;horizontal=1;startSize=26;fillColor=none;horizontalStack=0;resizeParent=1;resizeParentMax=0;resizeLast=0;collapsible=1;marginBottom=0;" parent="1" vertex="1">
          <mxGeometry x="1480" y="1200" width="160" height="104" as="geometry"/>
        </mxCell>
        <mxCell id="1P68BwMIQxXi_deiFwZ2-73" value="+ UNSPECIFILED_STATE" style="text;strokeColor=none;fillColor=none;align=left;verticalAlign=top;spacingLeft=4;spacingRight=4;overflow=hidden;rotatable=0;points=[[0,0.5],[1,0.5]];portConstraint=eastwest;" parent="1P68BwMIQxXi_deiFwZ2-69" vertex="1">
          <mxGeometry y="26" width="160" height="26" as="geometry"/>
        </mxCell>
        <mxCell id="1P68BwMIQxXi_deiFwZ2-74" value="+ PURCHASED" style="text;strokeColor=none;fillColor=none;align=left;verticalAlign=top;spacingLeft=4;spacingRight=4;overflow=hidden;rotatable=0;points=[[0,0.5],[1,0.5]];portConstraint=eastwest;" parent="1P68BwMIQxXi_deiFwZ2-69" vertex="1">
          <mxGeometry y="52" width="160" height="26" as="geometry"/>
        </mxCell>
        <mxCell id="1P68BwMIQxXi_deiFwZ2-75" value="+ PENDING" style="text;strokeColor=none;fillColor=none;align=left;verticalAlign=top;spacingLeft=4;spacingRight=4;overflow=hidden;rotatable=0;points=[[0,0.5],[1,0.5]];portConstraint=eastwest;" parent="1P68BwMIQxXi_deiFwZ2-69" vertex="1">
          <mxGeometry y="78" width="160" height="26" as="geometry"/>
        </mxCell>
        <mxCell id="1P68BwMIQxXi_deiFwZ2-83" value="" style="endArrow=open;endSize=12;dashed=1;html=1;strokeColor=#000000;exitX=1;exitY=0.5;exitDx=0;exitDy=0;edgeStyle=orthogonalEdgeStyle;" parent="1" source="1P68BwMIQxXi_deiFwZ2-59" target="1P68BwMIQxXi_deiFwZ2-69" edge="1">
          <mxGeometry width="160" relative="1" as="geometry">
            <mxPoint x="1020" y="2010" as="sourcePoint"/>
            <mxPoint x="1180" y="2010" as="targetPoint"/>
          </mxGeometry>
        </mxCell>
        <mxCell id="1P68BwMIQxXi_deiFwZ2-87" value="传入filter过滤商品id" style="edgeStyle=orthogonalEdgeStyle;rounded=0;orthogonalLoop=1;jettySize=auto;html=1;entryX=0;entryY=0.5;entryDx=0;entryDy=0;strokeColor=#000000;" parent="1" source="1P68BwMIQxXi_deiFwZ2-241" edge="1">
          <mxGeometry relative="1" as="geometry">
            <mxPoint x="680" y="1900" as="targetPoint"/>
          </mxGeometry>
        </mxCell>
        <mxCell id="1P68BwMIQxXi_deiFwZ2-244" style="dashed=1;edgeStyle=orthogonalEdgeStyle;rounded=0;orthogonalLoop=1;jettySize=auto;html=1;exitX=0.5;exitY=0;exitDx=0;exitDy=0;exitPerimeter=0;strokeColor=#000000;" parent="1" source="1P68BwMIQxXi_deiFwZ2-84" target="1P68BwMIQxXi_deiFwZ2-241" edge="1">
          <mxGeometry relative="1" as="geometry"/>
        </mxCell>
        <mxCell id="1P68BwMIQxXi_deiFwZ2-84" value="Start" style="strokeWidth=2;html=1;shape=mxgraph.flowchart.start_2;whiteSpace=wrap;fillColor=#E0E0E0;" parent="1" vertex="1">
          <mxGeometry x="240" y="1960" width="40" height="40" as="geometry"/>
        </mxCell>
        <mxCell id="1P68BwMIQxXi_deiFwZ2-88" value="Y" style="edgeStyle=orthogonalEdgeStyle;rounded=0;orthogonalLoop=1;jettySize=auto;html=1;entryX=0;entryY=0.5;entryDx=0;entryDy=0;strokeColor=#000000;" parent="1" source="1P68BwMIQxXi_deiFwZ2-256" target="1P68BwMIQxXi_deiFwZ2-89" edge="1">
          <mxGeometry relative="1" as="geometry">
            <mxPoint x="920" y="1980" as="sourcePoint"/>
            <Array as="points"/>
          </mxGeometry>
        </mxCell>
        <mxCell id="1P68BwMIQxXi_deiFwZ2-91" style="edgeStyle=orthogonalEdgeStyle;rounded=0;orthogonalLoop=1;jettySize=auto;html=1;exitX=0.5;exitY=1;exitDx=0;exitDy=0;entryX=1;entryY=0.5;entryDx=0;entryDy=0;strokeColor=#000000;" parent="1" source="1P68BwMIQxXi_deiFwZ2-89" target="1P68BwMIQxXi_deiFwZ2-90" edge="1">
          <mxGeometry relative="1" as="geometry"/>
        </mxCell>
        <mxCell id="1P68BwMIQxXi_deiFwZ2-89" value="Google Play" style="shape=parallelogram;html=1;strokeWidth=2;perimeter=parallelogramPerimeter;whiteSpace=wrap;rounded=1;arcSize=12;size=0.23;fillColor=#D4E1F5;" parent="1" vertex="1">
          <mxGeometry x="960" y="1960" width="120" height="40" as="geometry"/>
        </mxCell>
        <mxCell id="1P68BwMIQxXi_deiFwZ2-111" value="except 0 &amp;amp; -1" style="edgeStyle=orthogonalEdgeStyle;rounded=0;orthogonalLoop=1;jettySize=auto;html=1;exitX=0.25;exitY=1;exitDx=0;exitDy=0;entryX=1;entryY=0.5;entryDx=0;entryDy=0;entryPerimeter=0;strokeColor=#FF0000;" parent="1" source="1P68BwMIQxXi_deiFwZ2-90" target="1P68BwMIQxXi_deiFwZ2-109" edge="1">
          <mxGeometry relative="1" as="geometry">
            <Array as="points">
              <mxPoint x="740" y="2100"/>
              <mxPoint x="320" y="2100"/>
              <mxPoint x="320" y="2060"/>
            </Array>
          </mxGeometry>
        </mxCell>
        <mxCell id="1P68BwMIQxXi_deiFwZ2-168" style="edgeStyle=orthogonalEdgeStyle;rounded=0;orthogonalLoop=1;jettySize=auto;html=1;exitX=0.5;exitY=1;exitDx=0;exitDy=0;entryX=0.5;entryY=0;entryDx=0;entryDy=0;strokeColor=#000000;" parent="1" source="1P68BwMIQxXi_deiFwZ2-90" target="1P68BwMIQxXi_deiFwZ2-166" edge="1">
          <mxGeometry relative="1" as="geometry"/>
        </mxCell>
        <mxCell id="1P68BwMIQxXi_deiFwZ2-250" value="-1" style="edgeStyle=orthogonalEdgeStyle;rounded=0;orthogonalLoop=1;jettySize=auto;html=1;exitX=0;exitY=0.5;exitDx=0;exitDy=0;entryX=0.5;entryY=1;entryDx=0;entryDy=0;entryPerimeter=0;strokeColor=#000000;" parent="1" source="1P68BwMIQxXi_deiFwZ2-90" target="1P68BwMIQxXi_deiFwZ2-248" edge="1">
          <mxGeometry relative="1" as="geometry"/>
        </mxCell>
        <mxCell id="1P68BwMIQxXi_deiFwZ2-90" value="返回收据详情&lt;br&gt;Purchase.PurchasesResult" style="rounded=1;whiteSpace=wrap;html=1;absoluteArcSize=1;arcSize=14;strokeWidth=2;fillColor=none;" parent="1" vertex="1">
          <mxGeometry x="680" y="2040" width="240" height="40" as="geometry"/>
        </mxCell>
        <mxCell id="1P68BwMIQxXi_deiFwZ2-93" value="Purchase.PurchasesResult" style="swimlane;fontStyle=0;childLayout=stackLayout;horizontal=1;startSize=26;fillColor=none;horizontalStack=0;resizeParent=1;resizeParentMax=0;resizeLast=0;collapsible=1;marginBottom=0;" parent="1" vertex="1">
          <mxGeometry x="1200" y="1840" width="240" height="78" as="geometry"/>
        </mxCell>
        <mxCell id="1P68BwMIQxXi_deiFwZ2-95" value="+ mBillingResult: BillingResult" style="text;strokeColor=none;fillColor=none;align=left;verticalAlign=top;spacingLeft=4;spacingRight=4;overflow=hidden;rotatable=0;points=[[0,0.5],[1,0.5]];portConstraint=eastwest;fontStyle=1" parent="1P68BwMIQxXi_deiFwZ2-93" vertex="1">
          <mxGeometry y="26" width="240" height="26" as="geometry"/>
        </mxCell>
        <mxCell id="1P68BwMIQxXi_deiFwZ2-107" value="+ mPurchaseList: List&lt;Purchase&gt;" style="text;strokeColor=none;fillColor=none;align=left;verticalAlign=top;spacingLeft=4;spacingRight=4;overflow=hidden;rotatable=0;points=[[0,0.5],[1,0.5]];portConstraint=eastwest;fontStyle=1" parent="1P68BwMIQxXi_deiFwZ2-93" vertex="1">
          <mxGeometry y="52" width="240" height="26" as="geometry"/>
        </mxCell>
        <mxCell id="1P68BwMIQxXi_deiFwZ2-108" value="" style="endArrow=open;html=1;endSize=12;startArrow=diamondThin;startSize=14;startFill=0;edgeStyle=orthogonalEdgeStyle;align=left;verticalAlign=bottom;strokeColor=#000000;" parent="1" source="1P68BwMIQxXi_deiFwZ2-93" target="1P68BwMIQxXi_deiFwZ2-53" edge="1">
          <mxGeometry x="-1" y="3" relative="1" as="geometry">
            <mxPoint x="700" y="2090" as="sourcePoint"/>
            <mxPoint x="860" y="2090" as="targetPoint"/>
          </mxGeometry>
        </mxCell>
        <mxCell id="1P68BwMIQxXi_deiFwZ2-109" value="End" style="strokeWidth=2;html=1;shape=mxgraph.flowchart.terminator;whiteSpace=wrap;fillColor=#E0E0E0;" parent="1" vertex="1">
          <mxGeometry x="240" y="2040" width="40" height="40" as="geometry"/>
        </mxCell>
        <mxCell id="1P68BwMIQxXi_deiFwZ2-115" value="发货结果" style="edgeStyle=orthogonalEdgeStyle;rounded=0;orthogonalLoop=1;jettySize=auto;html=1;exitX=0.5;exitY=1;exitDx=0;exitDy=0;entryX=0.5;entryY=1;entryDx=0;entryDy=0;entryPerimeter=0;strokeColor=#000000;" parent="1" source="1P68BwMIQxXi_deiFwZ2-114" target="1P68BwMIQxXi_deiFwZ2-109" edge="1">
          <mxGeometry relative="1" as="geometry">
            <Array as="points">
              <mxPoint x="1020" y="2180"/>
              <mxPoint x="260" y="2180"/>
            </Array>
          </mxGeometry>
        </mxCell>
        <mxCell id="1P68BwMIQxXi_deiFwZ2-114" value="验证支付并发货" style="shape=parallelogram;html=1;strokeWidth=2;perimeter=parallelogramPerimeter;whiteSpace=wrap;rounded=1;arcSize=12;size=0.23;fillColor=#FFFF33;shadow=0;" parent="1" vertex="1">
          <mxGeometry x="960" y="2120" width="120" height="40" as="geometry"/>
        </mxCell>
        <mxCell id="1P68BwMIQxXi_deiFwZ2-228" value="Success" style="dashed=1;edgeStyle=orthogonalEdgeStyle;rounded=0;orthogonalLoop=1;jettySize=auto;html=1;exitX=1;exitY=0.5;exitDx=0;exitDy=0;exitPerimeter=0;strokeColor=#000000;entryX=0;entryY=0.5;entryDx=0;entryDy=0;" parent="1" source="1P68BwMIQxXi_deiFwZ2-121" target="JIaDca9eBKveF-68zJ5j-29" edge="1">
          <mxGeometry relative="1" as="geometry">
            <Array as="points"/>
          </mxGeometry>
        </mxCell>
        <mxCell id="1P68BwMIQxXi_deiFwZ2-121" value="重连？&lt;br&gt;(Option)" style="strokeWidth=2;html=1;shape=mxgraph.flowchart.decision;whiteSpace=wrap;fillColor=none;" parent="1" vertex="1">
          <mxGeometry x="440" y="840" width="160" height="40" as="geometry"/>
        </mxCell>
        <mxCell id="1P68BwMIQxXi_deiFwZ2-125" value="旧版GP不支持订阅" style="text;html=1;strokeColor=none;fillColor=none;align=center;verticalAlign=middle;whiteSpace=wrap;rounded=0;shadow=0;" parent="1" vertex="1">
          <mxGeometry x="1480" y="215" width="120" height="20" as="geometry"/>
        </mxCell>
        <mxCell id="1P68BwMIQxXi_deiFwZ2-126" style="edgeStyle=orthogonalEdgeStyle;rounded=0;orthogonalLoop=1;jettySize=auto;html=1;exitX=1;exitY=0.5;exitDx=0;exitDy=0;entryX=0;entryY=0.5;entryDx=0;entryDy=0;strokeColor=#000000;" parent="1" source="JIaDca9eBKveF-68zJ5j-3" target="1P68BwMIQxXi_deiFwZ2-125" edge="1">
          <mxGeometry relative="1" as="geometry"/>
        </mxCell>
        <mxCell id="1P68BwMIQxXi_deiFwZ2-127" value="BillingClient断线" style="text;html=1;strokeColor=none;fillColor=none;align=center;verticalAlign=middle;whiteSpace=wrap;rounded=0;shadow=0;" parent="1" vertex="1">
          <mxGeometry x="1480" y="241" width="120" height="20" as="geometry"/>
        </mxCell>
        <mxCell id="1P68BwMIQxXi_deiFwZ2-128" style="edgeStyle=orthogonalEdgeStyle;rounded=0;orthogonalLoop=1;jettySize=auto;html=1;exitX=1;exitY=0.5;exitDx=0;exitDy=0;entryX=0;entryY=0.5;entryDx=0;entryDy=0;strokeColor=#000000;" parent="1" source="JIaDca9eBKveF-68zJ5j-7" target="1P68BwMIQxXi_deiFwZ2-127" edge="1">
          <mxGeometry relative="1" as="geometry"/>
        </mxCell>
        <mxCell id="1P68BwMIQxXi_deiFwZ2-129" value="可能是网络断开" style="text;html=1;strokeColor=none;fillColor=none;align=center;verticalAlign=middle;whiteSpace=wrap;rounded=0;shadow=0;" parent="1" vertex="1">
          <mxGeometry x="1480" y="423" width="120" height="20" as="geometry"/>
        </mxCell>
        <mxCell id="1P68BwMIQxXi_deiFwZ2-130" style="edgeStyle=orthogonalEdgeStyle;rounded=0;orthogonalLoop=1;jettySize=auto;html=1;exitX=1;exitY=0.5;exitDx=0;exitDy=0;entryX=0;entryY=0.5;entryDx=0;entryDy=0;strokeColor=#000000;" parent="1" source="JIaDca9eBKveF-68zJ5j-13" target="1P68BwMIQxXi_deiFwZ2-129" edge="1">
          <mxGeometry relative="1" as="geometry"/>
        </mxCell>
        <mxCell id="1P68BwMIQxXi_deiFwZ2-131" value="可能未登录或不可用" style="text;html=1;strokeColor=none;fillColor=none;align=center;verticalAlign=middle;whiteSpace=wrap;rounded=0;shadow=0;" parent="1" vertex="1">
          <mxGeometry x="1480" y="332" width="120" height="20" as="geometry"/>
        </mxCell>
        <mxCell id="1P68BwMIQxXi_deiFwZ2-132" style="edgeStyle=orthogonalEdgeStyle;rounded=0;orthogonalLoop=1;jettySize=auto;html=1;exitX=1;exitY=0.5;exitDx=0;exitDy=0;entryX=0;entryY=0.5;entryDx=0;entryDy=0;strokeColor=#000000;" parent="1" source="JIaDca9eBKveF-68zJ5j-8" target="1P68BwMIQxXi_deiFwZ2-131" edge="1">
          <mxGeometry relative="1" as="geometry"/>
        </mxCell>
        <mxCell id="1P68BwMIQxXi_deiFwZ2-133" style="edgeStyle=orthogonalEdgeStyle;rounded=0;orthogonalLoop=1;jettySize=auto;html=1;exitX=1;exitY=0.5;exitDx=0;exitDy=0;strokeColor=#000000;entryX=0;entryY=0.5;entryDx=0;entryDy=0;" parent="1" source="JIaDca9eBKveF-68zJ5j-10" target="1P68BwMIQxXi_deiFwZ2-131" edge="1">
          <mxGeometry relative="1" as="geometry">
            <mxPoint x="1480" y="340" as="targetPoint"/>
            <Array as="points">
              <mxPoint x="1460" y="355"/>
              <mxPoint x="1460" y="342"/>
            </Array>
          </mxGeometry>
        </mxCell>
        <mxCell id="1P68BwMIQxXi_deiFwZ2-134" value="开发错误" style="text;html=1;strokeColor=none;fillColor=none;align=center;verticalAlign=middle;whiteSpace=wrap;rounded=0;shadow=0;" parent="1" vertex="1">
          <mxGeometry x="1480" y="397" width="120" height="20" as="geometry"/>
        </mxCell>
        <mxCell id="1P68BwMIQxXi_deiFwZ2-136" style="edgeStyle=orthogonalEdgeStyle;rounded=0;orthogonalLoop=1;jettySize=auto;html=1;exitX=1;exitY=0.5;exitDx=0;exitDy=0;entryX=0;entryY=0.5;entryDx=0;entryDy=0;strokeColor=#000000;" parent="1" source="JIaDca9eBKveF-68zJ5j-4" target="1P68BwMIQxXi_deiFwZ2-134" edge="1">
          <mxGeometry relative="1" as="geometry"/>
        </mxCell>
        <mxCell id="1P68BwMIQxXi_deiFwZ2-137" value="GP响应超时" style="text;html=1;strokeColor=none;fillColor=none;align=center;verticalAlign=middle;whiteSpace=wrap;rounded=0;shadow=0;" parent="1" vertex="1">
          <mxGeometry x="1480" y="189" width="120" height="20" as="geometry"/>
        </mxCell>
        <mxCell id="1P68BwMIQxXi_deiFwZ2-138" style="edgeStyle=orthogonalEdgeStyle;rounded=0;orthogonalLoop=1;jettySize=auto;html=1;exitX=1;exitY=0.5;exitDx=0;exitDy=0;entryX=0;entryY=0.5;entryDx=0;entryDy=0;strokeColor=#000000;" parent="1" source="JIaDca9eBKveF-68zJ5j-2" target="1P68BwMIQxXi_deiFwZ2-137" edge="1">
          <mxGeometry relative="1" as="geometry"/>
        </mxCell>
        <mxCell id="1P68BwMIQxXi_deiFwZ2-139" value="用户取消交易" style="text;html=1;strokeColor=none;fillColor=none;align=center;verticalAlign=middle;whiteSpace=wrap;rounded=0;shadow=0;" parent="1" vertex="1">
          <mxGeometry x="1480" y="293" width="120" height="20" as="geometry"/>
        </mxCell>
        <mxCell id="1P68BwMIQxXi_deiFwZ2-140" style="edgeStyle=orthogonalEdgeStyle;rounded=0;orthogonalLoop=1;jettySize=auto;html=1;exitX=1;exitY=0.5;exitDx=0;exitDy=0;entryX=0;entryY=0.5;entryDx=0;entryDy=0;strokeColor=#000000;" parent="1" source="JIaDca9eBKveF-68zJ5j-6" target="1P68BwMIQxXi_deiFwZ2-139" edge="1">
          <mxGeometry relative="1" as="geometry"/>
        </mxCell>
        <mxCell id="1P68BwMIQxXi_deiFwZ2-141" value="通常是上一次交易未完成" style="text;html=1;strokeColor=none;fillColor=none;align=center;verticalAlign=middle;whiteSpace=wrap;rounded=0;shadow=0;" parent="1" vertex="1">
          <mxGeometry x="1480" y="449" width="160" height="20" as="geometry"/>
        </mxCell>
        <mxCell id="1P68BwMIQxXi_deiFwZ2-142" style="edgeStyle=orthogonalEdgeStyle;rounded=0;orthogonalLoop=1;jettySize=auto;html=1;exitX=1;exitY=0.5;exitDx=0;exitDy=0;entryX=0;entryY=0.5;entryDx=0;entryDy=0;strokeColor=#000000;" parent="1" source="JIaDca9eBKveF-68zJ5j-12" target="1P68BwMIQxXi_deiFwZ2-141" edge="1">
          <mxGeometry relative="1" as="geometry"/>
        </mxCell>
        <mxCell id="1P68BwMIQxXi_deiFwZ2-143" value="通常是退款成功" style="text;html=1;strokeColor=none;fillColor=none;align=center;verticalAlign=middle;whiteSpace=wrap;rounded=0;shadow=0;" parent="1" vertex="1">
          <mxGeometry x="1480" y="475" width="120" height="20" as="geometry"/>
        </mxCell>
        <mxCell id="1P68BwMIQxXi_deiFwZ2-144" style="edgeStyle=orthogonalEdgeStyle;rounded=0;orthogonalLoop=1;jettySize=auto;html=1;exitX=1;exitY=0.5;exitDx=0;exitDy=0;entryX=0;entryY=0.5;entryDx=0;entryDy=0;strokeColor=#000000;" parent="1" source="JIaDca9eBKveF-68zJ5j-11" target="1P68BwMIQxXi_deiFwZ2-143" edge="1">
          <mxGeometry relative="1" as="geometry"/>
        </mxCell>
        <mxCell id="1P68BwMIQxXi_deiFwZ2-151" value="BillingClient.SkuType" style="swimlane;fontStyle=0;childLayout=stackLayout;horizontal=1;startSize=26;fillColor=none;horizontalStack=0;resizeParent=1;resizeParentMax=0;resizeLast=0;collapsible=1;marginBottom=0;" parent="1" vertex="1">
          <mxGeometry x="1480" y="520" width="160" height="78" as="geometry"/>
        </mxCell>
        <mxCell id="1P68BwMIQxXi_deiFwZ2-152" value="+ INAPP" style="text;strokeColor=none;fillColor=none;align=left;verticalAlign=top;spacingLeft=4;spacingRight=4;overflow=hidden;rotatable=0;points=[[0,0.5],[1,0.5]];portConstraint=eastwest;" parent="1P68BwMIQxXi_deiFwZ2-151" vertex="1">
          <mxGeometry y="26" width="160" height="26" as="geometry"/>
        </mxCell>
        <mxCell id="1P68BwMIQxXi_deiFwZ2-153" value="+ SUBS" style="text;strokeColor=none;fillColor=none;align=left;verticalAlign=top;spacingLeft=4;spacingRight=4;overflow=hidden;rotatable=0;points=[[0,0.5],[1,0.5]];portConstraint=eastwest;" parent="1P68BwMIQxXi_deiFwZ2-151" vertex="1">
          <mxGeometry y="52" width="160" height="26" as="geometry"/>
        </mxCell>
        <mxCell id="1P68BwMIQxXi_deiFwZ2-155" value="" style="endArrow=open;endSize=12;dashed=1;html=1;strokeColor=#000000;exitX=1;exitY=0.5;exitDx=0;exitDy=0;edgeStyle=orthogonalEdgeStyle;" parent="1" source="JIaDca9eBKveF-68zJ5j-46" target="1P68BwMIQxXi_deiFwZ2-151" edge="1">
          <mxGeometry width="160" relative="1" as="geometry">
            <mxPoint x="1020" y="2010" as="sourcePoint"/>
            <mxPoint x="1180" y="2010" as="targetPoint"/>
          </mxGeometry>
        </mxCell>
        <mxCell id="1P68BwMIQxXi_deiFwZ2-156" value="折扣价格(带符号)" style="text;html=1;strokeColor=none;fillColor=none;align=center;verticalAlign=middle;whiteSpace=wrap;rounded=0;shadow=0;" parent="1" vertex="1">
          <mxGeometry x="1480" y="635" width="120" height="20" as="geometry"/>
        </mxCell>
        <mxCell id="1P68BwMIQxXi_deiFwZ2-157" style="edgeStyle=orthogonalEdgeStyle;rounded=0;orthogonalLoop=1;jettySize=auto;html=1;exitX=1;exitY=0.5;exitDx=0;exitDy=0;entryX=0;entryY=0.5;entryDx=0;entryDy=0;strokeColor=#000000;" parent="1" source="JIaDca9eBKveF-68zJ5j-56" target="1P68BwMIQxXi_deiFwZ2-156" edge="1">
          <mxGeometry relative="1" as="geometry"/>
        </mxCell>
        <mxCell id="1P68BwMIQxXi_deiFwZ2-158" value="折扣价格 *&amp;nbsp;e6" style="text;html=1;strokeColor=none;fillColor=none;align=center;verticalAlign=middle;whiteSpace=wrap;rounded=0;shadow=0;" parent="1" vertex="1">
          <mxGeometry x="1480" y="661" width="120" height="20" as="geometry"/>
        </mxCell>
        <mxCell id="1P68BwMIQxXi_deiFwZ2-159" style="edgeStyle=orthogonalEdgeStyle;rounded=0;orthogonalLoop=1;jettySize=auto;html=1;exitX=1;exitY=0.5;exitDx=0;exitDy=0;entryX=0;entryY=0.5;entryDx=0;entryDy=0;strokeColor=#000000;" parent="1" source="JIaDca9eBKveF-68zJ5j-57" target="1P68BwMIQxXi_deiFwZ2-158" edge="1">
          <mxGeometry relative="1" as="geometry"/>
        </mxCell>
        <mxCell id="1P68BwMIQxXi_deiFwZ2-160" value="价格单位(ISO4217)" style="text;html=1;strokeColor=none;fillColor=none;align=center;verticalAlign=middle;whiteSpace=wrap;rounded=0;shadow=0;" parent="1" vertex="1">
          <mxGeometry x="1480" y="687" width="120" height="20" as="geometry"/>
        </mxCell>
        <mxCell id="1P68BwMIQxXi_deiFwZ2-161" style="edgeStyle=orthogonalEdgeStyle;rounded=0;orthogonalLoop=1;jettySize=auto;html=1;exitX=1;exitY=0.5;exitDx=0;exitDy=0;entryX=0;entryY=0.5;entryDx=0;entryDy=0;strokeColor=#000000;" parent="1" source="JIaDca9eBKveF-68zJ5j-58" target="1P68BwMIQxXi_deiFwZ2-160" edge="1">
          <mxGeometry relative="1" as="geometry"/>
        </mxCell>
        <mxCell id="1P68BwMIQxXi_deiFwZ2-162" value="原价(带符号)" style="text;html=1;strokeColor=none;fillColor=none;align=center;verticalAlign=middle;whiteSpace=wrap;rounded=0;shadow=0;" parent="1" vertex="1">
          <mxGeometry x="1480" y="713" width="120" height="20" as="geometry"/>
        </mxCell>
        <mxCell id="1P68BwMIQxXi_deiFwZ2-163" style="edgeStyle=orthogonalEdgeStyle;rounded=0;orthogonalLoop=1;jettySize=auto;html=1;exitX=1;exitY=0.5;exitDx=0;exitDy=0;entryX=0;entryY=0.5;entryDx=0;entryDy=0;strokeColor=#000000;" parent="1" source="JIaDca9eBKveF-68zJ5j-59" target="1P68BwMIQxXi_deiFwZ2-162" edge="1">
          <mxGeometry relative="1" as="geometry"/>
        </mxCell>
        <mxCell id="1P68BwMIQxXi_deiFwZ2-164" value="原价 *&amp;nbsp;e6" style="text;html=1;strokeColor=none;fillColor=none;align=center;verticalAlign=middle;whiteSpace=wrap;rounded=0;shadow=0;" parent="1" vertex="1">
          <mxGeometry x="1480" y="739" width="120" height="20" as="geometry"/>
        </mxCell>
        <mxCell id="1P68BwMIQxXi_deiFwZ2-165" style="edgeStyle=orthogonalEdgeStyle;rounded=0;orthogonalLoop=1;jettySize=auto;html=1;exitX=1;exitY=0.5;exitDx=0;exitDy=0;entryX=0;entryY=0.5;entryDx=0;entryDy=0;strokeColor=#000000;" parent="1" source="JIaDca9eBKveF-68zJ5j-60" target="1P68BwMIQxXi_deiFwZ2-164" edge="1">
          <mxGeometry relative="1" as="geometry"/>
        </mxCell>
        <mxCell id="1P68BwMIQxXi_deiFwZ2-167" style="edgeStyle=orthogonalEdgeStyle;rounded=0;orthogonalLoop=1;jettySize=auto;html=1;exitX=1;exitY=0.5;exitDx=0;exitDy=0;entryX=0;entryY=0.5;entryDx=0;entryDy=0;strokeColor=#000000;" parent="1" source="1P68BwMIQxXi_deiFwZ2-166" target="1P68BwMIQxXi_deiFwZ2-114" edge="1">
          <mxGeometry relative="1" as="geometry"/>
        </mxCell>
        <mxCell id="1P68BwMIQxXi_deiFwZ2-166" value="过滤操作" style="rounded=1;whiteSpace=wrap;html=1;absoluteArcSize=1;arcSize=14;strokeWidth=2;fillColor=none;" parent="1" vertex="1">
          <mxGeometry x="680" y="2120" width="240" height="40" as="geometry"/>
        </mxCell>
        <mxCell id="1P68BwMIQxXi_deiFwZ2-170" value="ServerFacade" style="swimlane;fontStyle=1;align=center;verticalAlign=top;childLayout=stackLayout;horizontal=1;startSize=26;horizontalStack=0;resizeParent=1;resizeParentMax=0;resizeLast=0;collapsible=1;marginBottom=0;shadow=0;fillColor=none;" parent="1" vertex="1">
          <mxGeometry x="400" y="2600" width="200" height="156" as="geometry"/>
        </mxCell>
        <mxCell id="1P68BwMIQxXi_deiFwZ2-171" value="+ 获取商品列表" style="text;strokeColor=none;fillColor=none;align=left;verticalAlign=top;spacingLeft=4;spacingRight=4;overflow=hidden;rotatable=0;points=[[0,0.5],[1,0.5]];portConstraint=eastwest;" parent="1P68BwMIQxXi_deiFwZ2-170" vertex="1">
          <mxGeometry y="26" width="200" height="26" as="geometry"/>
        </mxCell>
        <mxCell id="1P68BwMIQxXi_deiFwZ2-176" value="+ 创建订单" style="text;strokeColor=none;fillColor=none;align=left;verticalAlign=top;spacingLeft=4;spacingRight=4;overflow=hidden;rotatable=0;points=[[0,0.5],[1,0.5]];portConstraint=eastwest;" parent="1P68BwMIQxXi_deiFwZ2-170" vertex="1">
          <mxGeometry y="52" width="200" height="26" as="geometry"/>
        </mxCell>
        <mxCell id="1P68BwMIQxXi_deiFwZ2-177" value="+ 验证支付 &amp; 发货" style="text;strokeColor=none;fillColor=none;align=left;verticalAlign=top;spacingLeft=4;spacingRight=4;overflow=hidden;rotatable=0;points=[[0,0.5],[1,0.5]];portConstraint=eastwest;" parent="1P68BwMIQxXi_deiFwZ2-170" vertex="1">
          <mxGeometry y="78" width="200" height="26" as="geometry"/>
        </mxCell>
        <mxCell id="1P68BwMIQxXi_deiFwZ2-178" value="+ 查询订单" style="text;strokeColor=none;fillColor=none;align=left;verticalAlign=top;spacingLeft=4;spacingRight=4;overflow=hidden;rotatable=0;points=[[0,0.5],[1,0.5]];portConstraint=eastwest;" parent="1P68BwMIQxXi_deiFwZ2-170" vertex="1">
          <mxGeometry y="104" width="200" height="26" as="geometry"/>
        </mxCell>
        <mxCell id="1P68BwMIQxXi_deiFwZ2-179" value="+ 关闭订单" style="text;strokeColor=none;fillColor=none;align=left;verticalAlign=top;spacingLeft=4;spacingRight=4;overflow=hidden;rotatable=0;points=[[0,0.5],[1,0.5]];portConstraint=eastwest;" parent="1P68BwMIQxXi_deiFwZ2-170" vertex="1">
          <mxGeometry y="130" width="200" height="26" as="geometry"/>
        </mxCell>
        <mxCell id="1P68BwMIQxXi_deiFwZ2-180" value="GooglePlayBillingPayment" style="swimlane;fontStyle=1;align=center;verticalAlign=top;childLayout=stackLayout;horizontal=1;startSize=26;horizontalStack=0;resizeParent=1;resizeParentMax=0;resizeLast=0;collapsible=1;marginBottom=0;shadow=0;fillColor=none;" parent="1" vertex="1">
          <mxGeometry x="400" y="2800" width="200" height="286" as="geometry"/>
        </mxCell>
        <mxCell id="1P68BwMIQxXi_deiFwZ2-181" value="+ init(Activity, InitListener)" style="text;strokeColor=none;fillColor=none;align=left;verticalAlign=top;spacingLeft=4;spacingRight=4;overflow=hidden;rotatable=0;points=[[0,0.5],[1,0.5]];portConstraint=eastwest;" parent="1P68BwMIQxXi_deiFwZ2-180" vertex="1">
          <mxGeometry y="26" width="200" height="26" as="geometry"/>
        </mxCell>
        <mxCell id="1P68BwMIQxXi_deiFwZ2-257" value="+ startConnection()" style="text;strokeColor=none;fillColor=none;align=left;verticalAlign=top;spacingLeft=4;spacingRight=4;overflow=hidden;rotatable=0;points=[[0,0.5],[1,0.5]];portConstraint=eastwest;" parent="1P68BwMIQxXi_deiFwZ2-180" vertex="1">
          <mxGeometry y="52" width="200" height="26" as="geometry"/>
        </mxCell>
        <mxCell id="1P68BwMIQxXi_deiFwZ2-182" value="+ isReady(): Boolean" style="text;strokeColor=none;fillColor=none;align=left;verticalAlign=top;spacingLeft=4;spacingRight=4;overflow=hidden;rotatable=0;points=[[0,0.5],[1,0.5]];portConstraint=eastwest;" parent="1P68BwMIQxXi_deiFwZ2-180" vertex="1">
          <mxGeometry y="78" width="200" height="26" as="geometry"/>
        </mxCell>
        <mxCell id="1P68BwMIQxXi_deiFwZ2-183" value="+ addSku(String)" style="text;strokeColor=none;fillColor=none;align=left;verticalAlign=top;spacingLeft=4;spacingRight=4;overflow=hidden;rotatable=0;points=[[0,0.5],[1,0.5]];portConstraint=eastwest;" parent="1P68BwMIQxXi_deiFwZ2-180" vertex="1">
          <mxGeometry y="104" width="200" height="26" as="geometry"/>
        </mxCell>
        <mxCell id="1P68BwMIQxXi_deiFwZ2-184" value="+ removeSku(String)" style="text;strokeColor=none;fillColor=none;align=left;verticalAlign=top;spacingLeft=4;spacingRight=4;overflow=hidden;rotatable=0;points=[[0,0.5],[1,0.5]];portConstraint=eastwest;" parent="1P68BwMIQxXi_deiFwZ2-180" vertex="1">
          <mxGeometry y="130" width="200" height="26" as="geometry"/>
        </mxCell>
        <mxCell id="1P68BwMIQxXi_deiFwZ2-185" value="+ getSkuDetail(String): LiveData" style="text;strokeColor=none;fillColor=none;align=left;verticalAlign=top;spacingLeft=4;spacingRight=4;overflow=hidden;rotatable=0;points=[[0,0.5],[1,0.5]];portConstraint=eastwest;" parent="1P68BwMIQxXi_deiFwZ2-180" vertex="1">
          <mxGeometry y="156" width="200" height="26" as="geometry"/>
        </mxCell>
        <mxCell id="1P68BwMIQxXi_deiFwZ2-190" value="+ refreshDetails()" style="text;strokeColor=none;fillColor=none;align=left;verticalAlign=top;spacingLeft=4;spacingRight=4;overflow=hidden;rotatable=0;points=[[0,0.5],[1,0.5]];portConstraint=eastwest;" parent="1P68BwMIQxXi_deiFwZ2-180" vertex="1">
          <mxGeometry y="182" width="200" height="26" as="geometry"/>
        </mxCell>
        <mxCell id="1P68BwMIQxXi_deiFwZ2-191" value="+ makePurchase(String)" style="text;strokeColor=none;fillColor=none;align=left;verticalAlign=top;spacingLeft=4;spacingRight=4;overflow=hidden;rotatable=0;points=[[0,0.5],[1,0.5]];portConstraint=eastwest;" parent="1P68BwMIQxXi_deiFwZ2-180" vertex="1">
          <mxGeometry y="208" width="200" height="26" as="geometry"/>
        </mxCell>
        <mxCell id="1P68BwMIQxXi_deiFwZ2-192" value="+ queryPurchase(Filter)" style="text;strokeColor=none;fillColor=none;align=left;verticalAlign=top;spacingLeft=4;spacingRight=4;overflow=hidden;rotatable=0;points=[[0,0.5],[1,0.5]];portConstraint=eastwest;" parent="1P68BwMIQxXi_deiFwZ2-180" vertex="1">
          <mxGeometry y="234" width="200" height="26" as="geometry"/>
        </mxCell>
        <mxCell id="1P68BwMIQxXi_deiFwZ2-200" value="+ finish()" style="text;strokeColor=none;fillColor=none;align=left;verticalAlign=top;spacingLeft=4;spacingRight=4;overflow=hidden;rotatable=0;points=[[0,0.5],[1,0.5]];portConstraint=eastwest;" parent="1P68BwMIQxXi_deiFwZ2-180" vertex="1">
          <mxGeometry y="260" width="200" height="26" as="geometry"/>
        </mxCell>
        <mxCell id="1P68BwMIQxXi_deiFwZ2-186" value="刷新商品详情" style="rounded=1;whiteSpace=wrap;html=1;absoluteArcSize=1;arcSize=14;strokeWidth=2;fillColor=none;" parent="1" vertex="1">
          <mxGeometry x="740" y="680" width="120" height="40" as="geometry"/>
        </mxCell>
        <mxCell id="1P68BwMIQxXi_deiFwZ2-193" value="" style="endArrow=open;endSize=12;dashed=1;html=1;strokeColor=#000000;" parent="1" source="1P68BwMIQxXi_deiFwZ2-180" target="1P68BwMIQxXi_deiFwZ2-170" edge="1">
          <mxGeometry width="160" relative="1" as="geometry">
            <mxPoint x="290" y="2790" as="sourcePoint"/>
            <mxPoint x="450" y="2790" as="targetPoint"/>
          </mxGeometry>
        </mxCell>
        <mxCell id="1P68BwMIQxXi_deiFwZ2-194" value="BillingClient" style="swimlane;fontStyle=1;align=center;verticalAlign=top;childLayout=stackLayout;horizontal=1;startSize=26;horizontalStack=0;resizeParent=1;resizeParentMax=0;resizeLast=0;collapsible=1;marginBottom=0;shadow=0;fillColor=none;" parent="1" vertex="1">
          <mxGeometry x="640" y="2800" width="200" height="182" as="geometry"/>
        </mxCell>
        <mxCell id="1P68BwMIQxXi_deiFwZ2-195" value="+ isReady(): Boolean" style="text;strokeColor=none;fillColor=none;align=left;verticalAlign=top;spacingLeft=4;spacingRight=4;overflow=hidden;rotatable=0;points=[[0,0.5],[1,0.5]];portConstraint=eastwest;" parent="1P68BwMIQxXi_deiFwZ2-194" vertex="1">
          <mxGeometry y="26" width="200" height="26" as="geometry"/>
        </mxCell>
        <mxCell id="1P68BwMIQxXi_deiFwZ2-198" value="+ startConnection(Listener)" style="text;strokeColor=none;fillColor=none;align=left;verticalAlign=top;spacingLeft=4;spacingRight=4;overflow=hidden;rotatable=0;points=[[0,0.5],[1,0.5]];portConstraint=eastwest;" parent="1P68BwMIQxXi_deiFwZ2-194" vertex="1">
          <mxGeometry y="52" width="200" height="26" as="geometry"/>
        </mxCell>
        <mxCell id="1P68BwMIQxXi_deiFwZ2-199" value="+ endConnection()" style="text;strokeColor=none;fillColor=none;align=left;verticalAlign=top;spacingLeft=4;spacingRight=4;overflow=hidden;rotatable=0;points=[[0,0.5],[1,0.5]];portConstraint=eastwest;" parent="1P68BwMIQxXi_deiFwZ2-194" vertex="1">
          <mxGeometry y="78" width="200" height="26" as="geometry"/>
        </mxCell>
        <mxCell id="1P68BwMIQxXi_deiFwZ2-201" value="+ launchBillingFlow(Activity, Param)" style="text;strokeColor=none;fillColor=none;align=left;verticalAlign=top;spacingLeft=4;spacingRight=4;overflow=hidden;rotatable=0;points=[[0,0.5],[1,0.5]];portConstraint=eastwest;" parent="1P68BwMIQxXi_deiFwZ2-194" vertex="1">
          <mxGeometry y="104" width="200" height="26" as="geometry"/>
        </mxCell>
        <mxCell id="1P68BwMIQxXi_deiFwZ2-202" value="+ queryPruchases(String)" style="text;strokeColor=none;fillColor=none;align=left;verticalAlign=top;spacingLeft=4;spacingRight=4;overflow=hidden;rotatable=0;points=[[0,0.5],[1,0.5]];portConstraint=eastwest;" parent="1P68BwMIQxXi_deiFwZ2-194" vertex="1">
          <mxGeometry y="130" width="200" height="26" as="geometry"/>
        </mxCell>
        <mxCell id="1P68BwMIQxXi_deiFwZ2-203" value="+ ..." style="text;strokeColor=none;fillColor=none;align=left;verticalAlign=top;spacingLeft=4;spacingRight=4;overflow=hidden;rotatable=0;points=[[0,0.5],[1,0.5]];portConstraint=eastwest;" parent="1P68BwMIQxXi_deiFwZ2-194" vertex="1">
          <mxGeometry y="156" width="200" height="26" as="geometry"/>
        </mxCell>
        <mxCell id="1P68BwMIQxXi_deiFwZ2-204" value="" style="endArrow=open;endSize=12;dashed=1;html=1;strokeColor=#000000;" parent="1" source="1P68BwMIQxXi_deiFwZ2-180" target="1P68BwMIQxXi_deiFwZ2-194" edge="1">
          <mxGeometry width="160" relative="1" as="geometry">
            <mxPoint x="290" y="2790" as="sourcePoint"/>
            <mxPoint x="450" y="2790" as="targetPoint"/>
          </mxGeometry>
        </mxCell>
        <mxCell id="1P68BwMIQxXi_deiFwZ2-205" value="Google Play Developer API" style="swimlane;fontStyle=1;align=center;verticalAlign=top;childLayout=stackLayout;horizontal=1;startSize=26;horizontalStack=0;resizeParent=1;resizeParentMax=0;resizeLast=0;collapsible=1;marginBottom=0;shadow=0;fillColor=none;" parent="1" vertex="1">
          <mxGeometry x="640" y="2600" width="200" height="130" as="geometry"/>
        </mxCell>
        <mxCell id="1P68BwMIQxXi_deiFwZ2-206" value="+ get" style="text;strokeColor=none;fillColor=none;align=left;verticalAlign=top;spacingLeft=4;spacingRight=4;overflow=hidden;rotatable=0;points=[[0,0.5],[1,0.5]];portConstraint=eastwest;" parent="1P68BwMIQxXi_deiFwZ2-205" vertex="1">
          <mxGeometry y="26" width="200" height="26" as="geometry"/>
        </mxCell>
        <mxCell id="1P68BwMIQxXi_deiFwZ2-207" value="+ acknowledge" style="text;strokeColor=none;fillColor=none;align=left;verticalAlign=top;spacingLeft=4;spacingRight=4;overflow=hidden;rotatable=0;points=[[0,0.5],[1,0.5]];portConstraint=eastwest;" parent="1P68BwMIQxXi_deiFwZ2-205" vertex="1">
          <mxGeometry y="52" width="200" height="26" as="geometry"/>
        </mxCell>
        <mxCell id="1P68BwMIQxXi_deiFwZ2-208" value="+ delete" style="text;strokeColor=none;fillColor=none;align=left;verticalAlign=top;spacingLeft=4;spacingRight=4;overflow=hidden;rotatable=0;points=[[0,0.5],[1,0.5]];portConstraint=eastwest;" parent="1P68BwMIQxXi_deiFwZ2-205" vertex="1">
          <mxGeometry y="78" width="200" height="26" as="geometry"/>
        </mxCell>
        <mxCell id="1P68BwMIQxXi_deiFwZ2-209" value="+ ..." style="text;strokeColor=none;fillColor=none;align=left;verticalAlign=top;spacingLeft=4;spacingRight=4;overflow=hidden;rotatable=0;points=[[0,0.5],[1,0.5]];portConstraint=eastwest;" parent="1P68BwMIQxXi_deiFwZ2-205" vertex="1">
          <mxGeometry y="104" width="200" height="26" as="geometry"/>
        </mxCell>
        <mxCell id="1P68BwMIQxXi_deiFwZ2-211" value="" style="endArrow=open;endSize=12;dashed=1;html=1;strokeColor=#000000;" parent="1" source="1P68BwMIQxXi_deiFwZ2-170" target="1P68BwMIQxXi_deiFwZ2-205" edge="1">
          <mxGeometry width="160" relative="1" as="geometry">
            <mxPoint x="290" y="2790" as="sourcePoint"/>
            <mxPoint x="450" y="2790" as="targetPoint"/>
          </mxGeometry>
        </mxCell>
        <mxCell id="1P68BwMIQxXi_deiFwZ2-213" value="" style="endArrow=none;html=1;strokeColor=#000000;" parent="1" source="1P68BwMIQxXi_deiFwZ2-194" target="1P68BwMIQxXi_deiFwZ2-205" edge="1">
          <mxGeometry width="50" height="50" relative="1" as="geometry">
            <mxPoint x="230" y="2850" as="sourcePoint"/>
            <mxPoint x="280" y="2800" as="targetPoint"/>
          </mxGeometry>
        </mxCell>
        <mxCell id="1P68BwMIQxXi_deiFwZ2-214" value="Application" style="shape=component;align=left;spacingLeft=36;shadow=0;fillColor=none;" parent="1" vertex="1">
          <mxGeometry x="200" y="2760" width="120" height="40" as="geometry"/>
        </mxCell>
        <mxCell id="1P68BwMIQxXi_deiFwZ2-215" value="" style="endArrow=open;endSize=12;dashed=1;html=1;strokeColor=#000000;" parent="1" source="1P68BwMIQxXi_deiFwZ2-214" target="1P68BwMIQxXi_deiFwZ2-170" edge="1">
          <mxGeometry width="160" relative="1" as="geometry">
            <mxPoint x="290" y="2790" as="sourcePoint"/>
            <mxPoint x="450" y="2790" as="targetPoint"/>
          </mxGeometry>
        </mxCell>
        <mxCell id="1P68BwMIQxXi_deiFwZ2-216" value="" style="endArrow=open;endSize=12;dashed=1;html=1;strokeColor=#000000;" parent="1" source="1P68BwMIQxXi_deiFwZ2-214" target="1P68BwMIQxXi_deiFwZ2-180" edge="1">
          <mxGeometry width="160" relative="1" as="geometry">
            <mxPoint x="290" y="2790" as="sourcePoint"/>
            <mxPoint x="450" y="2790" as="targetPoint"/>
          </mxGeometry>
        </mxCell>
        <mxCell id="1P68BwMIQxXi_deiFwZ2-224" value="Failure" style="edgeStyle=orthogonalEdgeStyle;rounded=0;orthogonalLoop=1;jettySize=auto;html=1;exitX=0;exitY=0.5;exitDx=0;exitDy=0;entryX=0;entryY=0.25;entryDx=0;entryDy=0;shadow=0;strokeColor=#FF0000;exitPerimeter=0;" parent="1" source="1P68BwMIQxXi_deiFwZ2-121" target="JIaDca9eBKveF-68zJ5j-37" edge="1">
          <mxGeometry x="-0.8612" relative="1" as="geometry">
            <mxPoint x="640" y="1020" as="targetPoint"/>
            <Array as="points">
              <mxPoint x="420" y="860"/>
              <mxPoint x="420" y="1090"/>
            </Array>
            <mxPoint as="offset"/>
          </mxGeometry>
        </mxCell>
        <mxCell id="1P68BwMIQxXi_deiFwZ2-226" style="edgeStyle=orthogonalEdgeStyle;rounded=0;orthogonalLoop=1;jettySize=auto;html=1;exitX=1;exitY=0.5;exitDx=0;exitDy=0;strokeColor=#000000;" parent="1" source="1P68BwMIQxXi_deiFwZ2-225" target="1P68BwMIQxXi_deiFwZ2-186" edge="1">
          <mxGeometry relative="1" as="geometry"/>
        </mxCell>
        <mxCell id="1P68BwMIQxXi_deiFwZ2-225" value="检测连接状态&lt;br&gt;&lt;font color=&quot;#007fff&quot;&gt;&amp;lt;主动重连&amp;gt;&lt;/font&gt;" style="dashed=1;rounded=1;whiteSpace=wrap;html=1;absoluteArcSize=1;arcSize=14;strokeWidth=2;fillColor=none;" parent="1" vertex="1">
          <mxGeometry x="200" y="680" width="120" height="40" as="geometry"/>
        </mxCell>
        <mxCell id="1P68BwMIQxXi_deiFwZ2-230" value="Observe" style="edgeStyle=orthogonalEdgeStyle;rounded=0;orthogonalLoop=1;jettySize=auto;html=1;exitX=1;exitY=0.5;exitDx=0;exitDy=0;exitPerimeter=0;entryX=0.5;entryY=1;entryDx=0;entryDy=0;strokeColor=#000000;" parent="1" source="1P68BwMIQxXi_deiFwZ2-229" target="JIaDca9eBKveF-68zJ5j-37" edge="1">
          <mxGeometry relative="1" as="geometry"/>
        </mxCell>
        <mxCell id="1P68BwMIQxXi_deiFwZ2-229" value="Start" style="strokeWidth=2;html=1;shape=mxgraph.flowchart.start_2;whiteSpace=wrap;fillColor=#E0E0E0;" parent="1" vertex="1">
          <mxGeometry x="240" y="1120" width="40" height="40" as="geometry"/>
        </mxCell>
        <mxCell id="1P68BwMIQxXi_deiFwZ2-233" value="检测连接状态&lt;br&gt;&lt;font color=&quot;#007fff&quot;&gt;&amp;lt;主动重连&amp;gt;&lt;/font&gt;" style="dashed=1;rounded=1;whiteSpace=wrap;html=1;absoluteArcSize=1;arcSize=14;strokeWidth=2;fillColor=none;" parent="1" vertex="1">
          <mxGeometry x="200" y="1240" width="120" height="40" as="geometry"/>
        </mxCell>
        <mxCell id="1P68BwMIQxXi_deiFwZ2-235" value="" style="edgeStyle=orthogonalEdgeStyle;rounded=0;orthogonalLoop=1;jettySize=auto;html=1;exitX=1;exitY=0.5;exitDx=0;exitDy=0;exitPerimeter=0;strokeColor=#000000;" parent="1" target="1P68BwMIQxXi_deiFwZ2-19" edge="1">
          <mxGeometry relative="1" as="geometry">
            <mxPoint x="920.2068965517242" y="1500.2068965517242" as="sourcePoint"/>
          </mxGeometry>
        </mxCell>
        <mxCell id="1P68BwMIQxXi_deiFwZ2-236" value="N" style="edgeStyle=orthogonalEdgeStyle;rounded=0;orthogonalLoop=1;jettySize=auto;html=1;exitX=0;exitY=0.5;exitDx=0;exitDy=0;exitPerimeter=0;entryX=0.5;entryY=0;entryDx=0;entryDy=0;entryPerimeter=0;strokeColor=#FF0000;" parent="1" source="1P68BwMIQxXi_deiFwZ2-254" target="1P68BwMIQxXi_deiFwZ2-237" edge="1">
          <mxGeometry x="-0.2758" relative="1" as="geometry">
            <mxPoint x="680.2068965517242" y="1500.2068965517242" as="sourcePoint"/>
            <Array as="points">
              <mxPoint x="520" y="1420"/>
            </Array>
            <mxPoint as="offset"/>
          </mxGeometry>
        </mxCell>
        <mxCell id="1P68BwMIQxXi_deiFwZ2-239" value="Success" style="edgeStyle=orthogonalEdgeStyle;rounded=0;orthogonalLoop=1;jettySize=auto;html=1;entryX=0;entryY=0.5;entryDx=0;entryDy=0;strokeColor=#000000;" parent="1" source="1P68BwMIQxXi_deiFwZ2-237" target="1P68BwMIQxXi_deiFwZ2-17" edge="1">
          <mxGeometry relative="1" as="geometry">
            <mxPoint x="800.2068965517242" y="1520.2068965517242" as="targetPoint"/>
          </mxGeometry>
        </mxCell>
        <mxCell id="1P68BwMIQxXi_deiFwZ2-240" value="Failure" style="edgeStyle=orthogonalEdgeStyle;rounded=0;orthogonalLoop=1;jettySize=auto;html=1;exitX=0;exitY=0.5;exitDx=0;exitDy=0;exitPerimeter=0;entryX=1;entryY=0.5;entryDx=0;entryDy=0;entryPerimeter=0;strokeColor=#FF0000;" parent="1" source="1P68BwMIQxXi_deiFwZ2-237" target="1P68BwMIQxXi_deiFwZ2-23" edge="1">
          <mxGeometry x="-0.75" relative="1" as="geometry">
            <Array as="points">
              <mxPoint x="320" y="1500"/>
              <mxPoint x="320" y="1420"/>
            </Array>
            <mxPoint as="offset"/>
          </mxGeometry>
        </mxCell>
        <mxCell id="1P68BwMIQxXi_deiFwZ2-237" value="重连？&lt;br&gt;(Option)" style="strokeWidth=2;html=1;shape=mxgraph.flowchart.decision;whiteSpace=wrap;fillColor=none;" parent="1" vertex="1">
          <mxGeometry x="440" y="1480" width="160" height="40" as="geometry"/>
        </mxCell>
        <mxCell id="1P68BwMIQxXi_deiFwZ2-241" value="检测连接状态&lt;br&gt;&lt;font color=&quot;#007fff&quot;&gt;&amp;lt;主动重连&amp;gt;&lt;/font&gt;" style="dashed=1;rounded=1;whiteSpace=wrap;html=1;absoluteArcSize=1;arcSize=14;strokeWidth=2;fillColor=none;" parent="1" vertex="1">
          <mxGeometry x="200" y="1880" width="120" height="40" as="geometry"/>
        </mxCell>
        <mxCell id="1P68BwMIQxXi_deiFwZ2-242" value="可能商品已下架" style="text;html=1;strokeColor=none;fillColor=none;align=center;verticalAlign=middle;whiteSpace=wrap;rounded=0;shadow=0;" parent="1" vertex="1">
          <mxGeometry x="1480" y="371" width="120" height="20" as="geometry"/>
        </mxCell>
        <mxCell id="1P68BwMIQxXi_deiFwZ2-243" style="edgeStyle=orthogonalEdgeStyle;rounded=0;orthogonalLoop=1;jettySize=auto;html=1;exitX=1;exitY=0.5;exitDx=0;exitDy=0;entryX=0;entryY=0.5;entryDx=0;entryDy=0;strokeColor=#000000;" parent="1" source="JIaDca9eBKveF-68zJ5j-9" target="1P68BwMIQxXi_deiFwZ2-242" edge="1">
          <mxGeometry relative="1" as="geometry"/>
        </mxCell>
        <mxCell id="1P68BwMIQxXi_deiFwZ2-247" value="N" style="edgeStyle=orthogonalEdgeStyle;rounded=0;orthogonalLoop=1;jettySize=auto;html=1;strokeColor=#FF0000;entryX=0.5;entryY=0;entryDx=0;entryDy=0;entryPerimeter=0;" parent="1" source="1P68BwMIQxXi_deiFwZ2-255" target="1P68BwMIQxXi_deiFwZ2-248" edge="1">
          <mxGeometry x="-0.6887" relative="1" as="geometry">
            <mxPoint x="680" y="1980" as="sourcePoint"/>
            <Array as="points">
              <mxPoint x="800" y="1940"/>
              <mxPoint x="520" y="1940"/>
            </Array>
            <mxPoint as="offset"/>
          </mxGeometry>
        </mxCell>
        <mxCell id="1P68BwMIQxXi_deiFwZ2-249" value="Failure" style="edgeStyle=orthogonalEdgeStyle;rounded=0;orthogonalLoop=1;jettySize=auto;html=1;exitX=0;exitY=0.5;exitDx=0;exitDy=0;exitPerimeter=0;strokeColor=#FF0000;" parent="1" source="1P68BwMIQxXi_deiFwZ2-248" target="1P68BwMIQxXi_deiFwZ2-109" edge="1">
          <mxGeometry x="-0.669" relative="1" as="geometry">
            <Array as="points">
              <mxPoint x="320" y="1980"/>
              <mxPoint x="320" y="2060"/>
            </Array>
            <mxPoint as="offset"/>
          </mxGeometry>
        </mxCell>
        <mxCell id="1P68BwMIQxXi_deiFwZ2-248" value="重连？&lt;br&gt;(Option)" style="strokeWidth=2;html=1;shape=mxgraph.flowchart.decision;whiteSpace=wrap;fillColor=none;" parent="1" vertex="1">
          <mxGeometry x="440" y="1960" width="160" height="40" as="geometry"/>
        </mxCell>
        <mxCell id="1P68BwMIQxXi_deiFwZ2-254" value="连接可用？" style="strokeWidth=2;html=1;shape=mxgraph.flowchart.decision;whiteSpace=wrap;fillColor=none;" parent="1" vertex="1">
          <mxGeometry x="680" y="1400" width="240" height="40" as="geometry"/>
        </mxCell>
        <mxCell id="1P68BwMIQxXi_deiFwZ2-255" value="连接可用？" style="strokeWidth=2;html=1;shape=mxgraph.flowchart.decision;whiteSpace=wrap;fillColor=none;" parent="1" vertex="1">
          <mxGeometry x="680" y="1880" width="240" height="40" as="geometry"/>
        </mxCell>
        <mxCell id="1P68BwMIQxXi_deiFwZ2-256" value="主动查询收据&lt;br&gt;&amp;lt;BillingClient.queryPurchases&amp;gt;" style="rounded=1;whiteSpace=wrap;html=1;absoluteArcSize=1;arcSize=14;strokeWidth=2;fillColor=none;" parent="1" vertex="1">
          <mxGeometry x="680" y="1960" width="240" height="40" as="geometry"/>
        </mxCell>
        <mxCell id="1P68BwMIQxXi_deiFwZ2-246" value="Y" style="edgeStyle=orthogonalEdgeStyle;rounded=0;orthogonalLoop=1;jettySize=auto;html=1;exitX=0.5;exitY=1;exitDx=0;exitDy=0;strokeColor=#000000;" parent="1" target="1P68BwMIQxXi_deiFwZ2-256" edge="1">
          <mxGeometry x="0.5" y="10" relative="1" as="geometry">
            <mxPoint x="800" y="1920" as="sourcePoint"/>
            <mxPoint x="800" y="1950" as="targetPoint"/>
            <mxPoint as="offset"/>
          </mxGeometry>
        </mxCell>
        <mxCell id="1P68BwMIQxXi_deiFwZ2-260" style="edgeStyle=orthogonalEdgeStyle;rounded=0;orthogonalLoop=1;jettySize=auto;html=1;exitX=1;exitY=0.5;exitDx=0;exitDy=0;exitPerimeter=0;strokeColor=#000000;entryX=0;entryY=0.5;entryDx=0;entryDy=0;" parent="1" source="1P68BwMIQxXi_deiFwZ2-258" target="1P68BwMIQxXi_deiFwZ2-259" edge="1">
          <mxGeometry relative="1" as="geometry"/>
        </mxCell>
        <mxCell id="1P68BwMIQxXi_deiFwZ2-258" value="Start" style="strokeWidth=2;html=1;shape=mxgraph.flowchart.start_2;whiteSpace=wrap;fillColor=#E0E0E0;" parent="1" vertex="1">
          <mxGeometry x="240" y="2400" width="40" height="40" as="geometry"/>
        </mxCell>
        <mxCell id="1P68BwMIQxXi_deiFwZ2-262" style="edgeStyle=orthogonalEdgeStyle;rounded=0;orthogonalLoop=1;jettySize=auto;html=1;entryX=0;entryY=0.5;entryDx=0;entryDy=0;entryPerimeter=0;strokeColor=#000000;" parent="1" source="1P68BwMIQxXi_deiFwZ2-265" target="1P68BwMIQxXi_deiFwZ2-261" edge="1">
          <mxGeometry relative="1" as="geometry"/>
        </mxCell>
        <mxCell id="1P68BwMIQxXi_deiFwZ2-266" style="edgeStyle=orthogonalEdgeStyle;rounded=0;orthogonalLoop=1;jettySize=auto;html=1;exitX=0.5;exitY=1;exitDx=0;exitDy=0;strokeColor=#000000;" parent="1" source="1P68BwMIQxXi_deiFwZ2-259" target="1P68BwMIQxXi_deiFwZ2-265" edge="1">
          <mxGeometry relative="1" as="geometry"/>
        </mxCell>
        <mxCell id="1P68BwMIQxXi_deiFwZ2-259" value="终止连接&lt;br&gt;&amp;lt;BillingClient.endConnection&amp;gt;" style="rounded=1;whiteSpace=wrap;html=1;absoluteArcSize=1;arcSize=14;strokeWidth=2;fillColor=none;" parent="1" vertex="1">
          <mxGeometry x="680" y="2400" width="240" height="40" as="geometry"/>
        </mxCell>
        <mxCell id="1P68BwMIQxXi_deiFwZ2-261" value="End" style="strokeWidth=2;html=1;shape=mxgraph.flowchart.terminator;whiteSpace=wrap;fillColor=#E0E0E0;" parent="1" vertex="1">
          <mxGeometry x="960" y="2480" width="40" height="40" as="geometry"/>
        </mxCell>
        <mxCell id="1P68BwMIQxXi_deiFwZ2-264" style="edgeStyle=orthogonalEdgeStyle;rounded=0;orthogonalLoop=1;jettySize=auto;html=1;exitX=0.5;exitY=1;exitDx=0;exitDy=0;strokeColor=#000000;" parent="1" source="1P68BwMIQxXi_deiFwZ2-263" target="1P68BwMIQxXi_deiFwZ2-259" edge="1">
          <mxGeometry relative="1" as="geometry"/>
        </mxCell>
        <mxCell id="1P68BwMIQxXi_deiFwZ2-263" value="Lifecycle.Event.ON_DESTROY" style="rounded=1;whiteSpace=wrap;html=1;absoluteArcSize=1;arcSize=14;strokeWidth=2;fillColor=none;" parent="1" vertex="1">
          <mxGeometry x="680" y="2320" width="240" height="40" as="geometry"/>
        </mxCell>
        <mxCell id="1P68BwMIQxXi_deiFwZ2-265" value="释放Activity引用" style="rounded=1;whiteSpace=wrap;html=1;absoluteArcSize=1;arcSize=14;strokeWidth=2;fillColor=none;" parent="1" vertex="1">
          <mxGeometry x="680" y="2480" width="240" height="40" as="geometry"/>
        </mxCell>
        <mxCell id="EpCfE3pUbsDecMQ0keCG-1" value="PaymentComponent&lt;br&gt;&lt;br&gt;&lt;br&gt;&lt;br&gt;&lt;br&gt;" style="rounded=1;whiteSpace=wrap;html=1;fillColor=none;" vertex="1" parent="1">
          <mxGeometry x="1601" y="2080" width="419" height="80" as="geometry"/>
        </mxCell>
        <mxCell id="EpCfE3pUbsDecMQ0keCG-6" style="edgeStyle=orthogonalEdgeStyle;rounded=0;orthogonalLoop=1;jettySize=auto;html=1;exitX=1;exitY=0.5;exitDx=0;exitDy=0;" edge="1" parent="1" source="EpCfE3pUbsDecMQ0keCG-2" target="EpCfE3pUbsDecMQ0keCG-3">
          <mxGeometry relative="1" as="geometry"/>
        </mxCell>
        <mxCell id="EpCfE3pUbsDecMQ0keCG-2" value="准备/初始化&lt;br&gt;prepare" style="rounded=1;whiteSpace=wrap;html=1;fillColor=none;" vertex="1" parent="1">
          <mxGeometry x="1620" y="2120" width="80" height="30" as="geometry"/>
        </mxCell>
        <mxCell id="EpCfE3pUbsDecMQ0keCG-7" style="edgeStyle=orthogonalEdgeStyle;rounded=0;orthogonalLoop=1;jettySize=auto;html=1;exitX=1;exitY=0.5;exitDx=0;exitDy=0;entryX=0;entryY=0.5;entryDx=0;entryDy=0;" edge="1" parent="1" source="EpCfE3pUbsDecMQ0keCG-3" target="EpCfE3pUbsDecMQ0keCG-4">
          <mxGeometry relative="1" as="geometry"/>
        </mxCell>
        <mxCell id="EpCfE3pUbsDecMQ0keCG-3" value="查询商品&lt;br&gt;merchandise" style="rounded=1;whiteSpace=wrap;html=1;fillColor=none;" vertex="1" parent="1">
          <mxGeometry x="1722" y="2120" width="79" height="30" as="geometry"/>
        </mxCell>
        <mxCell id="EpCfE3pUbsDecMQ0keCG-8" style="edgeStyle=orthogonalEdgeStyle;rounded=0;orthogonalLoop=1;jettySize=auto;html=1;exitX=1;exitY=0.5;exitDx=0;exitDy=0;entryX=0;entryY=0.5;entryDx=0;entryDy=0;" edge="1" parent="1" source="EpCfE3pUbsDecMQ0keCG-4" target="EpCfE3pUbsDecMQ0keCG-5">
          <mxGeometry relative="1" as="geometry"/>
        </mxCell>
        <mxCell id="EpCfE3pUbsDecMQ0keCG-4" value="支付&lt;br&gt;deal" style="rounded=1;whiteSpace=wrap;html=1;fillColor=none;" vertex="1" parent="1">
          <mxGeometry x="1821" y="2120" width="79" height="30" as="geometry"/>
        </mxCell>
        <mxCell id="EpCfE3pUbsDecMQ0keCG-5" value="结束&lt;br&gt;finish" style="rounded=1;whiteSpace=wrap;html=1;fillColor=none;" vertex="1" parent="1">
          <mxGeometry x="1921" y="2120" width="79" height="30" as="geometry"/>
        </mxCell>
        <mxCell id="EpCfE3pUbsDecMQ0keCG-9" value="GooglePlayBillingPayment&lt;br&gt;&lt;br&gt;&lt;br&gt;&lt;br&gt;&lt;br&gt;&lt;br&gt;&lt;br&gt;&lt;br&gt;&lt;br&gt;&lt;br&gt;" style="rounded=1;whiteSpace=wrap;html=1;fillColor=none;" vertex="1" parent="1">
          <mxGeometry x="1601" y="2200" width="419" height="160" as="geometry"/>
        </mxCell>
        <mxCell id="EpCfE3pUbsDecMQ0keCG-11" value="WeChat" style="rounded=1;whiteSpace=wrap;html=1;fillColor=none;" vertex="1" parent="1">
          <mxGeometry x="1480" y="2200" width="80" height="40" as="geometry"/>
        </mxCell>
        <mxCell id="EpCfE3pUbsDecMQ0keCG-12" value="Others" style="rounded=1;whiteSpace=wrap;html=1;fillColor=none;" vertex="1" parent="1">
          <mxGeometry x="2061" y="2200" width="80" height="40" as="geometry"/>
        </mxCell>
        <mxCell id="EpCfE3pUbsDecMQ0keCG-16" value="Application" style="shape=component;align=left;spacingLeft=36;shadow=0;fillColor=none;" vertex="1" parent="1">
          <mxGeometry x="1750.5" y="2000" width="120" height="40" as="geometry"/>
        </mxCell>
        <mxCell id="EpCfE3pUbsDecMQ0keCG-19" value="" style="endArrow=open;endSize=12;dashed=1;html=1;" edge="1" parent="1" source="EpCfE3pUbsDecMQ0keCG-16" target="EpCfE3pUbsDecMQ0keCG-1">
          <mxGeometry width="160" relative="1" as="geometry">
            <mxPoint x="1430" y="2020" as="sourcePoint"/>
            <mxPoint x="1590" y="2020" as="targetPoint"/>
          </mxGeometry>
        </mxCell>
        <mxCell id="EpCfE3pUbsDecMQ0keCG-20" value="" style="endArrow=open;endSize=12;dashed=1;html=1;" edge="1" parent="1" source="EpCfE3pUbsDecMQ0keCG-1" target="EpCfE3pUbsDecMQ0keCG-11">
          <mxGeometry width="160" relative="1" as="geometry">
            <mxPoint x="1430" y="2020" as="sourcePoint"/>
            <mxPoint x="1590" y="2020" as="targetPoint"/>
          </mxGeometry>
        </mxCell>
        <mxCell id="EpCfE3pUbsDecMQ0keCG-21" value="" style="endArrow=open;endSize=12;dashed=1;html=1;" edge="1" parent="1" source="EpCfE3pUbsDecMQ0keCG-1" target="EpCfE3pUbsDecMQ0keCG-9">
          <mxGeometry width="160" relative="1" as="geometry">
            <mxPoint x="1430" y="2020" as="sourcePoint"/>
            <mxPoint x="1590" y="2020" as="targetPoint"/>
          </mxGeometry>
        </mxCell>
        <mxCell id="EpCfE3pUbsDecMQ0keCG-22" value="" style="endArrow=open;endSize=12;dashed=1;html=1;" edge="1" parent="1" source="EpCfE3pUbsDecMQ0keCG-1" target="EpCfE3pUbsDecMQ0keCG-12">
          <mxGeometry width="160" relative="1" as="geometry">
            <mxPoint x="1430" y="2020" as="sourcePoint"/>
            <mxPoint x="1590" y="2020" as="targetPoint"/>
          </mxGeometry>
        </mxCell>
        <mxCell id="EpCfE3pUbsDecMQ0keCG-23" value="&lt;b&gt;Connection&lt;/b&gt;&lt;br&gt;-&amp;nbsp;建立连接&lt;br&gt;-&amp;nbsp;断开连接&lt;br&gt;-&amp;nbsp;重试建立&lt;br&gt;-&amp;nbsp;连接状态" style="rounded=1;whiteSpace=wrap;html=1;fillColor=none;" vertex="1" parent="1">
          <mxGeometry x="1620" y="2240" width="100" height="100" as="geometry"/>
        </mxCell>
        <mxCell id="EpCfE3pUbsDecMQ0keCG-24" value="&lt;b&gt;Sku&lt;/b&gt;&lt;br&gt;-&amp;nbsp;查询商品信息&lt;br&gt;-&amp;nbsp;管理商品信息" style="rounded=1;whiteSpace=wrap;html=1;fillColor=none;" vertex="1" parent="1">
          <mxGeometry x="1761" y="2240" width="100" height="60" as="geometry"/>
        </mxCell>
        <mxCell id="EpCfE3pUbsDecMQ0keCG-25" value="&lt;b&gt;Purchase&lt;/b&gt;&lt;br&gt;-&amp;nbsp;订单管理&lt;br&gt;-&amp;nbsp;支付请求&lt;br&gt;-&amp;nbsp;补充发货" style="rounded=1;whiteSpace=wrap;html=1;fillColor=none;" vertex="1" parent="1">
          <mxGeometry x="1900" y="2240" width="100" height="100" as="geometry"/>
        </mxCell>
        <mxCell id="EpCfE3pUbsDecMQ0keCG-26" value="Server" style="shape=component;align=left;spacingLeft=36;shadow=0;fillColor=none;" vertex="1" parent="1">
          <mxGeometry x="1900" y="2400" width="120" height="40" as="geometry"/>
        </mxCell>
        <mxCell id="EpCfE3pUbsDecMQ0keCG-27" value="" style="endArrow=open;endSize=12;dashed=1;html=1;" edge="1" parent="1" source="EpCfE3pUbsDecMQ0keCG-9" target="EpCfE3pUbsDecMQ0keCG-26">
          <mxGeometry width="160" relative="1" as="geometry">
            <mxPoint x="1430" y="2020" as="sourcePoint"/>
            <mxPoint x="1590" y="2020" as="targetPoint"/>
          </mxGeometry>
        </mxCell>
        <mxCell id="EpCfE3pUbsDecMQ0keCG-28" value="" style="endArrow=open;endSize=12;dashed=1;html=1;edgeStyle=orthogonalEdgeStyle;" edge="1" parent="1" source="EpCfE3pUbsDecMQ0keCG-16" target="EpCfE3pUbsDecMQ0keCG-26">
          <mxGeometry width="160" relative="1" as="geometry">
            <mxPoint x="1430" y="2020" as="sourcePoint"/>
            <mxPoint x="1590" y="2020" as="targetPoint"/>
            <Array as="points">
              <mxPoint x="2160" y="2020"/>
              <mxPoint x="2160" y="2420"/>
            </Array>
          </mxGeometry>
        </mxCell>
        <mxCell id="EpCfE3pUbsDecMQ0keCG-30" value="Google" style="shape=component;align=left;spacingLeft=36;shadow=0;fillColor=none;" vertex="1" parent="1">
          <mxGeometry x="1601" y="2400" width="120" height="40" as="geometry"/>
        </mxCell>
        <mxCell id="EpCfE3pUbsDecMQ0keCG-32" value="" style="endArrow=open;endSize=12;dashed=1;html=1;" edge="1" parent="1" source="EpCfE3pUbsDecMQ0keCG-26" target="EpCfE3pUbsDecMQ0keCG-30">
          <mxGeometry width="160" relative="1" as="geometry">
            <mxPoint x="1430" y="2020" as="sourcePoint"/>
            <mxPoint x="1590" y="2020" as="targetPoint"/>
          </mxGeometry>
        </mxCell>
        <mxCell id="EpCfE3pUbsDecMQ0keCG-33" value="" style="endArrow=open;endSize=12;dashed=1;html=1;" edge="1" parent="1" source="EpCfE3pUbsDecMQ0keCG-9" target="EpCfE3pUbsDecMQ0keCG-30">
          <mxGeometry width="160" relative="1" as="geometry">
            <mxPoint x="1430" y="2020" as="sourcePoint"/>
            <mxPoint x="1590" y="2020" as="targetPoint"/>
          </mxGeometry>
        </mxCell>
        <mxCell id="EpCfE3pUbsDecMQ0keCG-35" value="" style="endArrow=open;endSize=12;dashed=1;html=1;" edge="1" parent="1" source="EpCfE3pUbsDecMQ0keCG-24" target="EpCfE3pUbsDecMQ0keCG-23">
          <mxGeometry width="160" relative="1" as="geometry">
            <mxPoint x="1430" y="2020" as="sourcePoint"/>
            <mxPoint x="1590" y="2020" as="targetPoint"/>
          </mxGeometry>
        </mxCell>
        <mxCell id="EpCfE3pUbsDecMQ0keCG-37" value="" style="endArrow=open;endSize=12;dashed=1;html=1;edgeStyle=orthogonalEdgeStyle;" edge="1" parent="1" source="EpCfE3pUbsDecMQ0keCG-25" target="EpCfE3pUbsDecMQ0keCG-23">
          <mxGeometry width="160" relative="1" as="geometry">
            <mxPoint x="1430" y="2020" as="sourcePoint"/>
            <mxPoint x="1590" y="2020" as="targetPoint"/>
            <Array as="points">
              <mxPoint x="1820" y="2320"/>
              <mxPoint x="1820" y="2320"/>
            </Array>
          </mxGeometry>
        </mxCell>
        <mxCell id="EpCfE3pUbsDecMQ0keCG-38" value="" style="endArrow=open;endSize=12;dashed=1;html=1;" edge="1" parent="1" source="EpCfE3pUbsDecMQ0keCG-25" target="EpCfE3pUbsDecMQ0keCG-24">
          <mxGeometry width="160" relative="1" as="geometry">
            <mxPoint x="1430" y="2020" as="sourcePoint"/>
            <mxPoint x="1590" y="2020" as="targetPoint"/>
          </mxGeometry>
        </mxCell>
        <mxCell id="EpCfE3pUbsDecMQ0keCG-42" style="edgeStyle=none;rounded=0;orthogonalLoop=1;jettySize=auto;html=1;exitX=0.75;exitY=1;exitDx=0;exitDy=0;entryX=0.75;entryY=0;entryDx=0;entryDy=0;" edge="1" parent="1" source="EpCfE3pUbsDecMQ0keCG-40" target="EpCfE3pUbsDecMQ0keCG-41">
          <mxGeometry relative="1" as="geometry"/>
        </mxCell>
        <mxCell id="EpCfE3pUbsDecMQ0keCG-50" style="edgeStyle=orthogonalEdgeStyle;rounded=0;orthogonalLoop=1;jettySize=auto;html=1;exitX=1;exitY=0.5;exitDx=0;exitDy=0;entryX=1;entryY=0.5;entryDx=0;entryDy=0;" edge="1" parent="1" source="EpCfE3pUbsDecMQ0keCG-40" target="EpCfE3pUbsDecMQ0keCG-48">
          <mxGeometry relative="1" as="geometry"/>
        </mxCell>
        <mxCell id="EpCfE3pUbsDecMQ0keCG-40" value="DISCONNECTED" style="rounded=1;whiteSpace=wrap;html=1;fillColor=none;" vertex="1" parent="1">
          <mxGeometry x="1400" y="2280" width="120" height="40" as="geometry"/>
        </mxCell>
        <mxCell id="EpCfE3pUbsDecMQ0keCG-44" style="edgeStyle=none;rounded=0;orthogonalLoop=1;jettySize=auto;html=1;" edge="1" parent="1" source="EpCfE3pUbsDecMQ0keCG-41" target="EpCfE3pUbsDecMQ0keCG-43">
          <mxGeometry relative="1" as="geometry"/>
        </mxCell>
        <mxCell id="EpCfE3pUbsDecMQ0keCG-46" style="edgeStyle=none;rounded=0;orthogonalLoop=1;jettySize=auto;html=1;exitX=0.25;exitY=0;exitDx=0;exitDy=0;entryX=0.25;entryY=1;entryDx=0;entryDy=0;" edge="1" parent="1" source="EpCfE3pUbsDecMQ0keCG-41" target="EpCfE3pUbsDecMQ0keCG-40">
          <mxGeometry relative="1" as="geometry"/>
        </mxCell>
        <mxCell id="EpCfE3pUbsDecMQ0keCG-49" style="edgeStyle=none;rounded=0;orthogonalLoop=1;jettySize=auto;html=1;exitX=0.5;exitY=1;exitDx=0;exitDy=0;entryX=0.5;entryY=0;entryDx=0;entryDy=0;" edge="1" parent="1" source="EpCfE3pUbsDecMQ0keCG-41" target="EpCfE3pUbsDecMQ0keCG-48">
          <mxGeometry relative="1" as="geometry"/>
        </mxCell>
        <mxCell id="EpCfE3pUbsDecMQ0keCG-41" value="CONNECTING" style="rounded=1;whiteSpace=wrap;html=1;fillColor=none;" vertex="1" parent="1">
          <mxGeometry x="1400" y="2360" width="120" height="40" as="geometry"/>
        </mxCell>
        <mxCell id="EpCfE3pUbsDecMQ0keCG-52" style="edgeStyle=orthogonalEdgeStyle;rounded=0;orthogonalLoop=1;jettySize=auto;html=1;exitX=0.5;exitY=1;exitDx=0;exitDy=0;entryX=0;entryY=0.5;entryDx=0;entryDy=0;" edge="1" parent="1" source="EpCfE3pUbsDecMQ0keCG-43" target="EpCfE3pUbsDecMQ0keCG-48">
          <mxGeometry relative="1" as="geometry"/>
        </mxCell>
        <mxCell id="EpCfE3pUbsDecMQ0keCG-53" style="edgeStyle=orthogonalEdgeStyle;rounded=0;orthogonalLoop=1;jettySize=auto;html=1;exitX=0.5;exitY=0;exitDx=0;exitDy=0;entryX=0.5;entryY=1;entryDx=0;entryDy=0;" edge="1" parent="1" source="EpCfE3pUbsDecMQ0keCG-43" target="EpCfE3pUbsDecMQ0keCG-51">
          <mxGeometry relative="1" as="geometry"/>
        </mxCell>
        <mxCell id="EpCfE3pUbsDecMQ0keCG-43" value="CONNECTED" style="rounded=1;whiteSpace=wrap;html=1;fillColor=none;" vertex="1" parent="1">
          <mxGeometry x="1240" y="2360" width="120" height="40" as="geometry"/>
        </mxCell>
        <mxCell id="EpCfE3pUbsDecMQ0keCG-47" value="auto retry" style="text;html=1;strokeColor=none;fillColor=none;align=center;verticalAlign=middle;whiteSpace=wrap;rounded=0;" vertex="1" parent="1">
          <mxGeometry x="1440" y="2330" width="40" height="20" as="geometry"/>
        </mxCell>
        <mxCell id="EpCfE3pUbsDecMQ0keCG-48" value="CLOSED" style="rounded=1;whiteSpace=wrap;html=1;fillColor=none;" vertex="1" parent="1">
          <mxGeometry x="1400" y="2440" width="120" height="40" as="geometry"/>
        </mxCell>
        <mxCell id="EpCfE3pUbsDecMQ0keCG-54" style="edgeStyle=orthogonalEdgeStyle;rounded=0;orthogonalLoop=1;jettySize=auto;html=1;exitX=1;exitY=0.5;exitDx=0;exitDy=0;entryX=0;entryY=0.5;entryDx=0;entryDy=0;" edge="1" parent="1" source="EpCfE3pUbsDecMQ0keCG-51" target="EpCfE3pUbsDecMQ0keCG-40">
          <mxGeometry relative="1" as="geometry"/>
        </mxCell>
        <mxCell id="EpCfE3pUbsDecMQ0keCG-55" style="edgeStyle=orthogonalEdgeStyle;rounded=0;orthogonalLoop=1;jettySize=auto;html=1;exitX=0;exitY=0.5;exitDx=0;exitDy=0;entryX=0;entryY=0.5;entryDx=0;entryDy=0;" edge="1" parent="1" source="EpCfE3pUbsDecMQ0keCG-51" target="EpCfE3pUbsDecMQ0keCG-48">
          <mxGeometry relative="1" as="geometry"/>
        </mxCell>
        <mxCell id="EpCfE3pUbsDecMQ0keCG-51" value="PENDING TASKS" style="dashed=1;rounded=1;whiteSpace=wrap;html=1;fillColor=none;" vertex="1" parent="1">
          <mxGeometry x="1240" y="2280" width="120" height="40" as="geometry"/>
        </mxCell>
        <mxCell id="EpCfE3pUbsDecMQ0keCG-62" value="" style="shape=mxgraph.bpmn.shape;html=1;verticalLabelPosition=bottom;labelBackgroundColor=#ffffff;verticalAlign=top;align=center;perimeter=ellipsePerimeter;outlineConnect=0;outline=standard;symbol=general;fillColor=#000000;" vertex="1" parent="1">
          <mxGeometry x="1510" y="2280" width="10" height="10" as="geometry"/>
        </mxCell>
        <mxCell id="EpCfE3pUbsDecMQ0keCG-67" value="" style="endArrow=none;dashed=1;html=1;entryX=0;entryY=0.5;entryDx=0;entryDy=0;exitX=1;exitY=0.5;exitDx=0;exitDy=0;" edge="1" parent="1" source="EpCfE3pUbsDecMQ0keCG-62" target="EpCfE3pUbsDecMQ0keCG-23">
          <mxGeometry width="50" height="50" relative="1" as="geometry">
            <mxPoint x="1450" y="2190" as="sourcePoint"/>
            <mxPoint x="1500" y="2140" as="targetPoint"/>
          </mxGeometry>
        </mxCell>
      </root>
    </mxGraphModel>
  </diagram>
</mxfile>
